<?xml version="1.0" encoding="iso-8859-1"?>
<!-- Generator: Adobe Illustrator 19.0.0, SVG Export Plug-In . SVG Version: 6.00 Build 0)  -->
<svg version="1.1" id="Layer_1" xmlns="http://www.w3.org/2000/svg" xmlns:xlink="http://www.w3.org/1999/xlink" x="0px" y="0px"
	 viewBox="0 0 511.996 511.996" style="enable-background:new 0 0 511.996 511.996;" xml:space="preserve">
<path style="fill:#E6E8FF;" d="M256.002,201.005c-16.834,0-30.48,13.646-30.48,30.48v27.828h60.961v-27.828
	C286.483,214.652,272.836,201.005,256.002,201.005z"/>
<path style="opacity:0.1;enable-background:new    ;" d="M266.886,203.014c-3.381-1.293-7.048-2.008-10.884-2.008
	c-16.834,0-30.48,13.646-30.48,30.48v27.828h21.768v-27.828C247.29,218.487,255.429,207.397,266.886,203.014z"/>
<path style="fill:#A9ACCC;" d="M302.046,185.873c-1.845-4.113-6.674-5.954-10.789-4.109c-8.635,3.873-17.72,6.243-27.092,7.118
	v-57.134c0-4.508-3.655-8.163-8.163-8.163c-4.508,0-8.163,3.655-8.163,8.163v57.136c-43.868-4.128-78.314-41.151-78.314-86.08
	c0-44.93,34.447-81.953,78.314-86.081v53.739c0,4.508,3.655,8.163,8.163,8.163c4.508,0,8.163-3.655,8.163-8.163V16.724
	c9.372,0.875,18.456,3.246,27.09,7.117c4.115,1.845,8.943,0.005,10.788-4.109c1.844-4.114,0.004-8.943-4.109-10.788
	C284.699,3.009,270.59,0,256.002,0c-56.686,0-102.803,46.117-102.803,102.803s46.117,102.803,102.803,102.803
	c14.589,0,28.699-3.009,41.936-8.944C302.051,194.816,303.89,189.987,302.046,185.873z"/>
<circle style="fill:#E6E8FF;" cx="256.003" cy="102.799" r="68.874"/>
<path style="opacity:0.1;enable-background:new    ;" d="M208.892,102.803c0-34.334,25.127-62.794,57.993-68.013
	c-3.546-0.564-7.179-0.864-10.884-0.864c-38.039,0-68.877,30.837-68.877,68.877c0,38.04,30.837,68.878,68.877,68.878
	c3.705,0,7.338-0.301,10.884-0.864C234.019,165.597,208.892,137.138,208.892,102.803z"/>
<rect x="174.363" y="240.415" style="fill:#464754;" width="163.292" height="252.627"/>
<rect x="174.363" y="240.415" style="opacity:0.1;enable-background:new    ;" width="21.768" height="252.627"/>
<rect x="210.715" y="277.029" style="fill:#A9ACCC;" width="90.576" height="98.63"/>
<rect x="174.363" y="446.884" style="opacity:0.1;enable-background:new    ;" width="163.292" height="46.159"/>
<rect x="144.454" y="474.093" style="fill:#A9ACCC;" width="223.088" height="37.902"/>
<rect x="144.454" y="474.093" style="opacity:0.1;enable-background:new    ;" width="21.768" height="37.902"/>
<g>
</g>
<g>
</g>
<g>
</g>
<g>
</g>
<g>
</g>
<g>
</g>
<g>
</g>
<g>
</g>
<g>
</g>
<g>
</g>
<g>
</g>
<g>
</g>
<g>
</g>
<g>
</g>
<g>
</g>
</svg>
