<?xml version="1.0" encoding="UTF-8"?>
<svg viewBox="0 0 1848.3 796.74" xmlns="http://www.w3.org/2000/svg">
<g transform="translate(-21.687 -128)" fill="#fff">
<g transform="translate(0 41.569)" data-name="Group 14869">
<ellipse transform="translate(507 557.43)" cx=".5" cy="1" rx=".5" ry="1" data-name="Ellipse 673"/>
<circle transform="translate(702 831.43)" cx="1" cy="1" r="1" data-name="Ellipse 680"/>
<ellipse transform="translate(786 441.43)" cx=".5" cy="1" rx=".5" ry="1" data-name="Ellipse 679"/>
<ellipse transform="translate(771 454.43)" cx=".5" rx=".5" data-name="Ellipse 705"/>
<ellipse transform="translate(1150 816.43)" cy=".5" ry=".5" data-name="Ellipse 718"/>
<circle transform="matrix(-.07 .998 -.998 -.07 506.68 146.24)" cx=".215" cy=".215" r=".215" data-name="Ellipse 714"/>
<circle transform="translate(771 465.43)" data-name="Ellipse 709"/>
<ellipse transform="translate(1117 602.43)" cy=".5" ry=".5" data-name="Ellipse 716"/>
<circle transform="matrix(-.07 .998 -.998 -.07 213.93 145.45)" cx=".215" cy=".215" r=".215" data-name="Ellipse 715"/>
<ellipse transform="translate(759 470.43)" cy=".5" ry=".5" data-name="Ellipse 708"/>
<ellipse transform="translate(720 540.43)" cy=".5" ry=".5" data-name="Ellipse 719"/>
<circle transform="translate(783 467.43)" data-name="Ellipse 706"/>
<ellipse transform="translate(1711 578.43)" cy=".5" ry=".5" data-name="Ellipse 717"/>
<circle transform="matrix(-.07 .998 -.998 -.07 203.16 310.56)" cx=".215" cy=".215" r=".215" data-name="Ellipse 712"/>
<ellipse transform="translate(783 456.43)" cy=".5" ry=".5" data-name="Ellipse 707"/>
<circle transform="translate(1711 800.43)" data-name="Ellipse 720"/>
<circle transform="matrix(-.07 .998 -.998 -.07 473.24 316.68)" cx=".215" cy=".215" r=".215" data-name="Ellipse 713"/>
<circle transform="translate(801 449.43)" data-name="Ellipse 710"/>
<circle transform="matrix(-.07 .998 -.998 -.07 533.05 464.25)" cx=".215" cy=".215" r=".215" data-name="Ellipse 711"/>
<circle transform="translate(1815 119.43)" cx="1" cy="1" r="1" data-name="Ellipse 681"/>
<circle transform="translate(136 428.43)" cx="1" cy="1" r="1" data-name="Ellipse 678"/>
<circle transform="translate(160 803.43)" cx="1" cy="1" r="1" data-name="Ellipse 677"/>
<circle transform="translate(148 147.43)" cx="1" cy="1" r="1" data-name="Ellipse 676"/>
<circle transform="translate(587 143.43)" cx="1" cy="1" r="1" data-name="Ellipse 697"/>
<g transform="translate(1281.5 817.43)" data-name="Group 14859">
<circle transform="translate(2.466 2)" cx="1" cy="1" r="1" data-name="Ellipse 675"/>
<circle transform="translate(.466)" cx="3" cy="3" r="3" opacity=".4" data-name="Ellipse 704"/>
</g>
<g transform="translate(858.7 524.35)" opacity=".62" data-name="Group 14866">
<circle transform="translate(2.297 2.082)" cx="1" cy="1" r="1" data-name="Ellipse 675"/>
<circle transform="translate(.297 .082)" cx="3" cy="3" r="3" opacity=".4" data-name="Ellipse 704"/>
</g>
<g transform="translate(1718.4 513.19)" opacity=".53" data-name="Group 14864">
<circle transform="translate(1.644 2.238)" cx="1" cy="1" r="1" data-name="Ellipse 675"/>
<circle transform="translate(-.356 .238)" cx="3" cy="3" r="3" opacity=".4" data-name="Ellipse 704"/>
</g>
<g transform="translate(1795.4 147)" data-name="Group 14860">
<circle transform="translate(1.644 2.428)" cx="1" cy="1" r="1" data-name="Ellipse 675"/>
<circle transform="translate(-.356 .428)" cx="3" cy="3" r="3" opacity=".4" data-name="Ellipse 704"/>
</g>
<g transform="translate(118 651.54)" opacity=".43" data-name="Group 14865">
<ellipse transform="translate(2 1.893)" cx="1" cy=".5" rx="1" ry=".5" data-name="Ellipse 675"/>
<circle transform="translate(0 -.107)" cx="3" cy="3" r="3" opacity=".4" data-name="Ellipse 704"/>
</g>
<g transform="translate(1851.4 493.11)" data-name="Group 14861">
<ellipse transform="translate(2.644 2.321)" cx=".5" cy="1" rx=".5" ry="1" data-name="Ellipse 675"/>
<ellipse transform="translate(-.356 .321)" cx="3.5" cy="3" rx="3.5" ry="3" opacity=".4" data-name="Ellipse 704"/>
</g>
<g transform="translate(201 564.51)" data-name="Group 14863">
<ellipse transform="translate(2 1.918)" cx="1" cy=".5" rx="1" ry=".5" data-name="Ellipse 675"/>
<circle transform="translate(0 -.082)" cx="3" cy="3" r="3" opacity=".4" data-name="Ellipse 704"/>
</g>
<g transform="translate(107 98.002)" data-name="Group 14862">
<ellipse transform="translate(2 2.429)" cx=".5" cy="1" rx=".5" ry="1" data-name="Ellipse 675"/>
<circle transform="translate(0 .429)" cx="3" cy="3" r="3" opacity=".4" data-name="Ellipse 704"/>
</g>
<g transform="translate(485.2 846.43)" opacity=".09" data-name="Group 14867">
<ellipse transform="translate(1.798 3)" cx="1" cy=".5" rx="1" ry=".5" data-name="Ellipse 675"/>
<circle transform="translate(-.202)" cx="3" cy="3" r="3" opacity=".4" data-name="Ellipse 704"/>
</g>
<ellipse transform="translate(1127 523.43)" cx=".5" cy="1" rx=".5" ry="1" data-name="Ellipse 683"/>
<circle transform="translate(980 94.43)" cx="1" cy="1" r="1" data-name="Ellipse 699"/>
<ellipse transform="translate(1747 364.43)" cx=".5" cy="1" rx=".5" ry="1" data-name="Ellipse 674"/>
<circle transform="translate(812 804.43)" cx="1" cy="1" r="1" data-name="Ellipse 726"/>
<circle transform="translate(1775 113.43)" cx="1" cy="1" r="1" data-name="Ellipse 701"/>
<circle transform="translate(1729 366.43)" cx="1" cy="1" r="1" data-name="Ellipse 700"/>
<circle transform="translate(1492 527.43)" cx=".5" cy=".5" r=".5" data-name="Ellipse 684"/>
<circle transform="translate(1431 819.43)" cx=".5" cy=".5" r=".5" data-name="Ellipse 687"/>
<circle transform="translate(991 598.43)" cx=".5" cy=".5" r=".5" data-name="Ellipse 688"/>
<circle transform="translate(589 399.43)" cx=".5" cy=".5" r=".5" data-name="Ellipse 691"/>
<circle transform="translate(84 117.43)" cx=".5" cy=".5" r=".5" data-name="Ellipse 696"/>
<circle transform="translate(573 97.43)" cx=".5" cy=".5" r=".5" data-name="Ellipse 695"/>
<ellipse transform="translate(996 478.43)" cx=".5" rx=".5" data-name="Ellipse 690"/>
<circle transform="matrix(-.602 .799 -.799 -.602 1403.2 388.67)" cx=".43" cy=".43" r=".43" data-name="Ellipse 729"/>
<ellipse transform="translate(573 659.43)" cx=".5" rx=".5" data-name="Ellipse 689"/>
<circle transform="translate(474 428.43)" cx=".5" cy=".5" r=".5" data-name="Ellipse 694"/>
<circle transform="translate(168 558.43)" cx=".5" cy=".5" r=".5" data-name="Ellipse 693"/>
<circle transform="translate(87 849.43)" cx=".5" cy=".5" r=".5" data-name="Ellipse 692"/>
<circle transform="translate(1111 412.43)" cx=".5" cy=".5" r=".5" data-name="Ellipse 686"/>
<circle transform="matrix(-.602 .799 -.799 -.602 1389.6 514.8)" cx=".43" cy=".43" r=".43" data-name="Ellipse 728"/>
<circle transform="translate(1312 616.43)" cx=".5" cy=".5" r=".5" data-name="Ellipse 703"/>
<circle transform="translate(1235 108.43)" cx=".5" cy=".5" r=".5" data-name="Ellipse 698"/>
<circle transform="translate(1797 346.43)" cx=".5" cy=".5" r=".5" data-name="Ellipse 685"/>
<ellipse transform="translate(1711 87.43)" cy=".5" ry=".5" data-name="Ellipse 702"/>
<circle transform="translate(1825 831.43)" cx="1" cy="1" r="1" data-name="Ellipse 682"/>
<circle transform="matrix(-.485 .875 -.875 -.485 1449.4 417.26)" cx=".215" cy=".215" r=".215" data-name="Ellipse 721"/>
<circle transform="translate(74.088 824.47) rotate(246)" cx=".215" cy=".215" r=".215" data-name="Ellipse 727"/>
<circle transform="matrix(-.485 .875 -.875 -.485 1748.8 470.52)" cx=".215" cy=".215" r=".215" data-name="Ellipse 722"/>
<circle transform="matrix(-.485 .875 -.875 -.485 1855.7 101.38)" cx=".215" cy=".215" r=".215" data-name="Ellipse 723"/>
<circle transform="matrix(-.485 .875 -.875 -.485 1432.5 870.8)" cx=".215" cy=".215" r=".215" data-name="Ellipse 724"/>
<circle transform="matrix(-.485 .875 -.875 -.485 1306.8 841.01)" cx=".215" cy=".215" r=".215" data-name="Ellipse 725"/>
</g>
<g transform="translate(1945.7 55.086) rotate(90)" data-name="Group 14870">
<ellipse transform="translate(263.98 1183.8)" cx=".5" cy="1" rx=".5" ry="1" data-name="Ellipse 673"/>
<circle transform="translate(349.7 1142.2)" cx="1" cy="1" r="1" data-name="Ellipse 680"/>
<ellipse transform="translate(386.6 914.69)" cx=".5" cy="1" rx=".5" ry="1" data-name="Ellipse 679"/>
<ellipse transform="translate(379.93 937.82)" cx=".5" rx=".5" data-name="Ellipse 705"/>
<ellipse transform="translate(546.28 823.59)" cy=".5" ry=".5" data-name="Ellipse 718"/>
<circle transform="matrix(-.07 .998 -.998 -.07 264.2 1276.6)" cx=".215" cy=".215" r=".215" data-name="Ellipse 714"/>
<circle transform="translate(380.16 979.34)" data-name="Ellipse 709"/>
<ellipse transform="translate(531.67 1295.4)" cy=".5" ry=".5" data-name="Ellipse 716"/>
<circle transform="matrix(-.07 .998 -.998 -.07 213.93 1260.6)" cx=".215" cy=".215" r=".215" data-name="Ellipse 715"/>
<ellipse transform="translate(374.73 987.38)" cy=".5" ry=".5" data-name="Ellipse 708"/>
<ellipse transform="translate(358.04 1151.2)" cy=".5" ry=".5" data-name="Ellipse 719"/>
<circle transform="translate(385.58 979.34)" data-name="Ellipse 706"/>
<ellipse transform="translate(710.66 1231.8)" cy=".5" ry=".5" data-name="Ellipse 717"/>
<circle transform="matrix(-.07 .998 -.998 -.07 203.16 606.13)" cx=".215" cy=".215" r=".215" data-name="Ellipse 712"/>
<ellipse transform="translate(385.58 945.82)" cy=".5" ry=".5" data-name="Ellipse 707"/>
<circle transform="translate(710.66 493.24)" data-name="Ellipse 720"/>
<circle transform="matrix(-.07 .998 -.998 -.07 249.52 620.52)" cx=".215" cy=".215" r=".215" data-name="Ellipse 713"/>
<circle transform="translate(393.1 937.82)" data-name="Ellipse 710"/>
<circle transform="matrix(-.07 .998 -.998 -.07 275.78 967.58)" cx=".215" cy=".215" r=".215" data-name="Ellipse 711"/>
<circle transform="translate(814.66 748.32)" cx="1" cy="1" r="1" data-name="Ellipse 681"/>
<circle transform="translate(135.62 892.67)" cx="1" cy="1" r="1" data-name="Ellipse 678"/>
<circle transform="translate(159.62 562.38)" cx="1" cy="1" r="1" data-name="Ellipse 677"/>
<circle transform="translate(147.62 1328.2)" cx="1" cy="1" r="1" data-name="Ellipse 676"/>
<circle transform="translate(298.85 1245)" cx="1" cy="1" r="1" data-name="Ellipse 697"/>
<g transform="translate(602.34 887.86)" data-name="Group 14859">
<circle transform="translate(2 2)" cx="1" cy="1" r="1" data-name="Ellipse 675"/>
<circle cx="3" cy="3" r="3" opacity=".4" data-name="Ellipse 704"/>
</g>
<g transform="translate(417.02 1103.8)" opacity=".62" data-name="Group 14866">
<circle transform="translate(2 2)" cx="1" cy="1" r="1" data-name="Ellipse 675"/>
<circle cx="3" cy="3" r="3" opacity=".4" data-name="Ellipse 704"/>
</g>
<g transform="translate(717.66 1081.8)" opacity=".53" data-name="Group 14864">
<circle transform="translate(2 2)" cx="1" cy="1" r="1" data-name="Ellipse 675"/>
<circle cx="3" cy="3" r="3" opacity=".4" data-name="Ellipse 704"/>
</g>
<g transform="translate(794.66 1383.6)" data-name="Group 14860">
<circle transform="translate(2 2)" cx="1" cy="1" r="1" data-name="Ellipse 675"/>
<circle cx="3" cy="3" r="3" opacity=".4" data-name="Ellipse 704"/>
</g>
<g transform="translate(117.62 1405.7)" opacity=".43" data-name="Group 14865">
<ellipse transform="translate(2 2)" cx="1" cy=".5" rx="1" ry=".5" data-name="Ellipse 675"/>
<circle cx="3" cy="3" r="3" opacity=".4" data-name="Ellipse 704"/>
</g>
<g transform="translate(850.66 1037.6)" data-name="Group 14861">
<ellipse transform="translate(3 2)" cx=".5" cy="1" rx=".5" ry="1" data-name="Ellipse 675"/>
<ellipse cx="3.5" cy="3" rx="3.5" ry="3" opacity=".4" data-name="Ellipse 704"/>
</g>
<g transform="translate(200.62 1211.8)" data-name="Group 14863">
<ellipse transform="translate(2 2)" cx="1" cy=".5" rx="1" ry=".5" data-name="Ellipse 675"/>
<circle cx="3" cy="3" r="3" opacity=".4" data-name="Ellipse 704"/>
</g>
<g transform="translate(106.62 98.742)" data-name="Group 14862">
<ellipse transform="translate(2 2)" cx=".5" cy="1" rx=".5" ry="1" data-name="Ellipse 675"/>
<circle cx="3" cy="3" r="3" opacity=".4" data-name="Ellipse 704"/>
</g>
<g transform="translate(253.71 1513.7)" opacity=".09" data-name="Group 14867">
<ellipse transform="translate(2 3)" cx="1" cy=".5" rx="1" ry=".5" data-name="Ellipse 675"/>
<circle cx="3" cy="3" r="3" opacity=".4" data-name="Ellipse 704"/>
</g>
<ellipse transform="translate(535.92 1100.6)" cx=".5" cy="1" rx=".5" ry="1" data-name="Ellipse 683"/>
<circle transform="translate(471.39 94.742)" cx="1" cy="1" r="1" data-name="Ellipse 699"/>
<ellipse transform="translate(746.66 728.75)" cx=".5" cy="1" rx=".5" ry="1" data-name="Ellipse 674"/>
<circle transform="translate(397.62 584.4)" cx="1" cy="1" r="1" data-name="Ellipse 726"/>
<circle transform="translate(774.66 625.99)" cx="1" cy="1" r="1" data-name="Ellipse 701"/>
<circle transform="translate(728.66 728.75)" cx="1" cy="1" r="1" data-name="Ellipse 700"/>
<circle transform="translate(696.5 1109.6)" cx=".5" cy=".5" r=".5" data-name="Ellipse 684"/>
<circle transform="translate(669.39 884.7)" cx=".5" cy=".5" r=".5" data-name="Ellipse 687"/>
<circle transform="translate(476.69 1273.4)" cx=".5" cy=".5" r=".5" data-name="Ellipse 688"/>
<circle transform="translate(299.85 823.59)" cx=".5" cy=".5" r=".5" data-name="Ellipse 691"/>
<circle transform="translate(83.621 701.35)" cx=".5" cy=".5" r=".5" data-name="Ellipse 696"/>
<circle transform="translate(292.76 97.742)" cx=".5" cy=".5" r=".5" data-name="Ellipse 695"/>
<ellipse transform="translate(478.36 998.88)" cx=".5" rx=".5" data-name="Ellipse 690"/>
<circle transform="matrix(-.602 .799 -.799 -.602 657.98 789.54)" cx=".43" cy=".43" r=".43" data-name="Ellipse 729"/>
<ellipse transform="translate(292.76 1423.9)" cx=".5" rx=".5" data-name="Ellipse 689"/>
<circle transform="translate(249.38 884.7)" cx=".5" cy=".5" r=".5" data-name="Ellipse 694"/>
<circle transform="translate(167.62 1192.7)" cx=".5" cy=".5" r=".5" data-name="Ellipse 693"/>
<circle transform="translate(86.621 1498.3)" cx=".5" cy=".5" r=".5" data-name="Ellipse 692"/>
<circle transform="translate(529.25 845.59)" cx=".5" cy=".5" r=".5" data-name="Ellipse 686"/>
<circle transform="matrix(-.602 .799 -.799 -.602 652.02 1086.4)" cx=".43" cy=".43" r=".43" data-name="Ellipse 728"/>
<circle transform="translate(617.25 1334.5)" cx=".5" cy=".5" r=".5" data-name="Ellipse 703"/>
<circle transform="translate(583.88 518)" cx=".5" cy=".5" r=".5" data-name="Ellipse 698"/>
<circle transform="translate(796.66 681.8)" cx=".5" cy=".5" r=".5" data-name="Ellipse 685"/>
<ellipse transform="translate(710.66 87.742)" cy=".5" ry=".5" data-name="Ellipse 702"/>
<circle transform="translate(824.66 1142.2)" cx="1" cy="1" r="1" data-name="Ellipse 682"/>
<circle transform="matrix(-.485 .875 -.875 -.485 678.2 856.9)" cx=".215" cy=".215" r=".215" data-name="Ellipse 721"/>
<circle transform="translate(74.088 973.26) rotate(246)" cx=".215" cy=".215" r=".215" data-name="Ellipse 727"/>
<circle transform="matrix(-.485 .875 -.875 -.485 748.32 982.17)" cx=".215" cy=".215" r=".215" data-name="Ellipse 722"/>
<circle transform="matrix(-.485 .875 -.875 -.485 855.22 101.38)" cx=".215" cy=".215" r=".215" data-name="Ellipse 723"/>
<circle transform="matrix(-.485 .875 -.875 -.485 670.78 1923.7)" cx=".215" cy=".215" r=".215" data-name="Ellipse 724"/>
<circle transform="matrix(-.485 .875 -.875 -.485 615.59 1317.3)" cx=".215" cy=".215" r=".215" data-name="Ellipse 725"/>
</g>
</g>
</svg>
