<svg id="SvgjsSvg1001" width="288" height="288" xmlns="http://www.w3.org/2000/svg" version="1.1" xmlns:xlink="http://www.w3.org/1999/xlink" xmlns:svgjs="http://svgjs.com/svgjs"><defs id="SvgjsDefs1002"></defs><g id="SvgjsG1008" transform="matrix(1,0,0,1,0,0)"><svg xmlns="http://www.w3.org/2000/svg" enable-background="new 0 0 231.523 231.523" viewBox="0 0 231.523 231.523" width="288" height="288"><path d="M107.415 145.798c.399 3.858 3.656 6.73 7.451 6.73.258 0 .518-.013.78-.04 4.12-.426 7.115-4.111 6.689-8.231l-3.459-33.468c-.426-4.12-4.113-7.111-8.231-6.689-4.12.426-7.115 4.111-6.689 8.231L107.415 145.798zM154.351 152.488c.262.027.522.04.78.04 3.796 0 7.052-2.872 7.451-6.73l3.458-33.468c.426-4.121-2.569-7.806-6.689-8.231-4.123-.421-7.806 2.57-8.232 6.689l-3.458 33.468C147.235 148.377 150.23 152.062 154.351 152.488zM96.278 185.088c-12.801 0-23.215 10.414-23.215 23.215 0 12.804 10.414 23.221 23.215 23.221 12.801 0 23.216-10.417 23.216-23.221C119.494 195.502 109.079 185.088 96.278 185.088zM96.278 216.523c-4.53 0-8.215-3.688-8.215-8.221 0-4.53 3.685-8.215 8.215-8.215 4.53 0 8.216 3.685 8.216 8.215C104.494 212.835 100.808 216.523 96.278 216.523zM173.719 185.088c-12.801 0-23.216 10.414-23.216 23.215 0 12.804 10.414 23.221 23.216 23.221 12.802 0 23.218-10.417 23.218-23.221C196.937 195.502 186.521 185.088 173.719 185.088zM173.719 216.523c-4.53 0-8.216-3.688-8.216-8.221 0-4.53 3.686-8.215 8.216-8.215 4.531 0 8.218 3.685 8.218 8.215C181.937 212.835 178.251 216.523 173.719 216.523z" fill="#dadfe1" class="color000 svgShape"></path><path d="M218.58 79.08c-1.42-1.837-3.611-2.913-5.933-2.913H63.152l-6.278-24.141c-.86-3.305-3.844-5.612-7.259-5.612H18.876c-4.142 0-7.5 3.358-7.5 7.5s3.358 7.5 7.5 7.5h24.94l6.227 23.946c.031.134.066.267.104.398l23.157 89.046c.86 3.305 3.844 5.612 7.259 5.612h108.874c3.415 0 6.399-2.307 7.259-5.612l23.21-89.25C220.49 83.309 220 80.918 218.58 79.08zM183.638 165.418H86.362l-19.309-74.25h135.895L183.638 165.418zM105.556 52.851c1.464 1.463 3.383 2.195 5.302 2.195 1.92 0 3.84-.733 5.305-2.198 2.928-2.93 2.927-7.679-.003-10.607L92.573 18.665c-2.93-2.928-7.678-2.927-10.607.002-2.928 2.93-2.927 7.679.002 10.607L105.556 52.851zM159.174 55.045c1.92 0 3.841-.733 5.306-2.199l23.552-23.573c2.928-2.93 2.925-7.679-.005-10.606-2.93-2.928-7.679-2.925-10.606.005l-23.552 23.573c-2.928 2.93-2.925 7.679.005 10.607C155.338 54.314 157.256 55.045 159.174 55.045zM135.006 48.311c.001 0 .001 0 .002 0 4.141 0 7.499-3.357 7.5-7.498l.008-33.311c.001-4.142-3.356-7.501-7.498-7.502-.001 0-.001 0-.001 0-4.142 0-7.5 3.357-7.501 7.498l-.008 33.311C127.507 44.951 130.864 48.31 135.006 48.311z" fill="#dadfe1" class="color000 svgShape"></path></svg></g></svg>