<?xml version="1.0" encoding="iso-8859-1"?>
<!-- Generator: Adobe Illustrator 19.0.0, SVG Export Plug-In . SVG Version: 6.00 Build 0)  -->
<svg version="1.1" id="Layer_1" xmlns="http://www.w3.org/2000/svg" xmlns:xlink="http://www.w3.org/1999/xlink" x="0px" y="0px"
	 viewBox="0 0 512 512" style="enable-background:new 0 0 512 512;" xml:space="preserve">
<g>
	<rect x="131.303" y="170.436" style="fill:#0EDDF0;" width="249.397" height="43.373"/>
	<rect x="131.303" y="457.786" style="fill:#0EDDF0;" width="249.397" height="43.373"/>
</g>
<path style="fill:#FFDE17;" d="M278.576,335.8c0.065,0.011,0.13,0.033,0.195,0.054L256,339.226l-22.771-3.372
	c0.065-0.022,0.13-0.043,0.195-0.054c-34.471-8.425-61.558-35.664-69.745-70.211c43.677,0.867,45.369,12.958,92.32,12.958
	s48.643-12.09,92.32-12.958C340.134,300.136,313.047,327.375,278.576,335.8z"/>
<g>
	<path style="fill:#EFEFEF;" d="M350.88,213.812v29.819c0,7.558-0.889,14.91-2.559,21.958c-43.677,0.867-45.369,12.958-92.32,12.958
		s-48.643-12.09-92.32-12.958c-1.67-7.048-2.559-14.4-2.559-21.958v-29.819L350.88,213.812L350.88,213.812z"/>
	<path style="fill:#EFEFEF;" d="M350.88,427.969v29.819H161.121v-29.819c0-44.555,30.708-81.922,72.108-92.114L256,339.226
		l22.771-3.372C320.171,346.047,350.88,383.413,350.88,427.969z"/>
</g>
<polygon style="fill:#FFDE17;" points="195.819,457.784 256,397.242 316.181,457.784 "/>
<g>
	<path style="fill:#231F20;" d="M358.872,268.09c0.001-0.003,0.001-0.007,0.002-0.011c1.89-7.984,2.849-16.21,2.849-24.447v-18.98
		h18.976c5.988,0,10.843-4.856,10.843-10.843v-43.373c0-5.988-4.856-10.843-10.843-10.843H131.301
		c-5.988,0-10.843,4.856-10.843,10.843v43.373c0,5.988,4.856,10.843,10.843,10.843h18.976v18.98c0,8.238,0.959,16.463,2.849,24.447
		c0.001,0.003,0.001,0.008,0.002,0.011c4.477,18.892,14.117,36.197,27.876,50.044c6.92,6.965,14.729,12.883,23.177,17.642
		c-32.718,18.322-53.903,53.141-53.903,92.193v18.972h-18.976c-5.988,0-10.843,4.856-10.843,10.843v43.373
		c0,5.988,4.856,10.843,10.843,10.843h249.397c5.988,0,10.843-4.856,10.843-10.843v-43.373c0-5.988-4.856-10.843-10.843-10.843
		h-18.976v-18.972c0-39.051-21.186-73.87-53.902-92.193c8.448-4.759,16.255-10.677,23.177-17.642
		C344.755,304.286,354.395,286.981,358.872,268.09z M142.145,202.964v-21.687h227.711v21.687H142.145z M171.964,243.631v-18.976
		h168.072v18.976c0,3.837-0.26,7.67-0.779,11.461l0.009,0.005c-16.887,1.008-27.281,3.776-37.361,6.467
		c-11.815,3.156-22.976,6.137-45.906,6.137s-34.09-2.981-45.906-6.137c-10.079-2.692-20.473-5.459-37.361-6.467l0.009-0.005
		C172.224,251.301,171.964,247.469,171.964,243.631z M171.964,427.969c0-38.086,25.329-71.127,61.852-81.065l11.341,1.68v44.187
		l-53.847,54.17h-19.346V427.969z M256,412.623l34.113,34.317h-68.226L256,412.623z M369.856,468.627v21.687H142.145v-21.687
		H369.856z M340.036,427.969v18.972h-19.346l-53.847-54.17v-44.187l11.341-1.68C314.707,356.842,340.036,389.882,340.036,427.969z
		 M276.002,325.267L256,328.265c0,0-19.892-2.971-20.002-2.998c-25.398-6.208-46.53-24.331-56.954-47.892
		c10.444,1.134,17.8,3.099,25.454,5.143c12.648,3.379,25.727,6.873,51.503,6.873s38.855-3.494,51.503-6.873
		c7.653-2.044,15.009-4.009,25.454-5.143C322.532,300.935,301.4,319.059,276.002,325.267z"/>
	<path style="fill:#231F20;" d="M249.989,123.492c-5.184-2.994-11.817-1.218-14.812,3.969l-0.395,0.684
		c-2.995,5.185-1.218,11.817,3.969,14.812c1.707,0.986,3.572,1.455,5.411,1.455c3.747,0,7.392-1.945,9.401-5.424l0.395-0.684
		C256.952,133.119,255.175,126.487,249.989,123.492z"/>
	<path style="fill:#231F20;" d="M228.669,82.704l34.831-13.205L251.539,91.27c-2.883,5.249-0.966,11.841,4.282,14.725
		c1.657,0.91,3.447,1.341,5.212,1.341c3.828,0,7.539-2.032,9.513-5.624l26.133-47.563c2.187-3.982,1.66-8.905-1.319-12.333
		c-2.981-3.43-7.78-4.636-12.03-3.027l-36.235,13.737l18.583-36.79c2.7-5.346,0.556-11.867-4.79-14.568
		c-5.347-2.7-11.867-0.556-14.568,4.79l-31.175,61.718c-2.017,3.995-1.375,8.817,1.618,12.141
		C219.757,83.143,224.486,84.289,228.669,82.704z"/>
</g>
<g>
</g>
<g>
</g>
<g>
</g>
<g>
</g>
<g>
</g>
<g>
</g>
<g>
</g>
<g>
</g>
<g>
</g>
<g>
</g>
<g>
</g>
<g>
</g>
<g>
</g>
<g>
</g>
<g>
</g>
</svg>
