<?xml version="1.0" encoding="iso-8859-1"?>
<!-- Generator: Adobe Illustrator 18.0.0, SVG Export Plug-In . SVG Version: 6.00 Build 0)  -->
<!DOCTYPE svg PUBLIC "-//W3C//DTD SVG 1.1//EN" "http://www.w3.org/Graphics/SVG/1.1/DTD/svg11.dtd">
<svg version="1.1" id="Capa_1" xmlns="http://www.w3.org/2000/svg" xmlns:xlink="http://www.w3.org/1999/xlink" x="0px" y="0px"
	 viewBox="0 0 297 297" style="enable-background:new 0 0 297 297;" xml:space="preserve">
<g>
	<g>
		<path style="fill:#5065A1;" d="M100.916,297h95.167c10.171,0,18.417-8.245,18.417-18.417V84.416
			C214.5,74.245,206.255,66,196.083,66h-95.167C90.745,66,82.5,74.245,82.5,84.416v194.167C82.5,288.755,90.745,297,100.916,297z"/>
	</g>
	<g style="opacity:0.31;">
		<path style="fill:#5065A1;" d="M196.083,66h-16.5C189.755,66,198,74.245,198,84.417v194.167c0,10.171-8.245,18.417-18.417,18.417
			h16.5c10.171,0,18.417-8.245,18.417-18.417V84.417C214.5,74.245,206.255,66,196.083,66z"/>
	</g>
	<g>
		<circle style="fill:#ECF0F1;" cx="148.5" cy="165" r="49.5"/>
	</g>
	<g>
		<path style="fill:#ECF0F1;" d="M180.814,127.52c5.625,8.032,8.936,17.804,8.936,28.354c0,27.338-22.162,49.5-49.5,49.5
			c-12.354,0-23.641-4.536-32.314-12.02c8.951,12.781,23.776,21.146,40.564,21.146c27.338,0,49.5-22.162,49.5-49.5
			C198,150.016,191.333,136.597,180.814,127.52z"/>
	</g>
	<g>
		<polygon style="fill:#3498DB;" points="173.25,132 123.75,165 140.25,165 123.75,198 173.25,165 156.75,165 		"/>
	</g>
	<g>
		<path style="fill:#3498DB;" d="M99,66h99V47.167C198,39.343,191.657,33,183.833,33h-70.667C105.343,33,99,39.343,99,47.167V66z"/>
	</g>
	<g style="opacity:0.49;">
		<path style="fill:#3498DB;" d="M183.833,33h-14.625c7.824,0,14.167,6.343,14.167,14.167V66H198V47.167
			C198,39.343,191.657,33,183.833,33z"/>
	</g>
	<g>
		<rect x="140.25" y="16.5" style="fill:#5065A1;" width="16.5" height="16.5"/>
	</g>
	<g>
		<path style="fill:#3DBCE5;" d="M132,16.5h33c4.556,0,8.25-3.694,8.25-8.25v0c0-4.556-3.694-8.25-8.25-8.25h-33
			c-4.556,0-8.25,3.694-8.25,8.25v0C123.75,12.806,127.444,16.5,132,16.5z"/>
	</g>
</g>
<g>
</g>
<g>
</g>
<g>
</g>
<g>
</g>
<g>
</g>
<g>
</g>
<g>
</g>
<g>
</g>
<g>
</g>
<g>
</g>
<g>
</g>
<g>
</g>
<g>
</g>
<g>
</g>
<g>
</g>
</svg>
