<?xml version="1.0" encoding="iso-8859-1"?>
<!-- Generator: Adobe Illustrator 19.0.0, SVG Export Plug-In . SVG Version: 6.00 Build 0)  -->
<svg version="1.1" id="Layer_1" xmlns="http://www.w3.org/2000/svg" xmlns:xlink="http://www.w3.org/1999/xlink" x="0px" y="0px"
	 viewBox="0 0 503.467 503.467" style="enable-background:new 0 0 503.467 503.467;" xml:space="preserve">
<g transform="translate(1 1)">
	<path style="fill:#E4F2DE;" d="M250.733,464.067c9.387,0,17.067,7.68,17.067,17.067s-7.68,17.067-17.067,17.067
		c-9.387,0-17.067-7.68-17.067-17.067S241.347,464.067,250.733,464.067z M20.333,233.667c9.387,0,17.067,7.68,17.067,17.067
		c0,9.387-7.68,17.067-17.067,17.067s-17.067-7.68-17.067-17.067C3.267,241.347,10.947,233.667,20.333,233.667z M481.133,233.667
		c9.387,0,17.067,7.68,17.067,17.067c0,9.387-7.68,17.067-17.067,17.067s-17.067-7.68-17.067-17.067
		C464.067,241.347,471.747,233.667,481.133,233.667z M250.733,3.267c9.387,0,17.067,7.68,17.067,17.067S260.12,37.4,250.733,37.4
		c-9.387,0-17.067-7.68-17.067-17.067S241.347,3.267,250.733,3.267z"/>
	<path style="fill:#FFE079;" d="M88.6,54.467L74.947,65.56l5.973,17.067l-17.067-7.68l-17.067,7.68L52.76,65.56L37.4,54.467h17.067
		L63,37.4l8.533,17.067H88.6z M81.773,422.253l-7.68,17.067l7.68,17.067l-17.067-5.973l-11.093,15.36v-17.067l-17.067-8.533
		l17.067-8.533v-17.067l11.093,13.653L81.773,422.253z M464.067,448.707H447l-8.533,17.067l-8.533-17.067h-17.067l13.653-11.093
		l-5.973-16.213l17.067,7.68l17.067-7.68l-5.973,17.067L464.067,448.707z M464.92,63.853l-17.067,8.533v17.067L436.76,75.8
		l-17.067,5.973l7.68-17.067l-7.68-17.067l17.067,5.973l11.093-15.36V55.32L464.92,63.853z"/>
	<path style="fill:#C49AE9;" d="M314.733,218.307c5.973,0,5.973,7.68,2.56,10.24c-3.413,2.56-30.72,23.893-30.72,23.893
		s8.533,33.28,10.24,41.813c2.56,8.533-4.267,8.533-8.533,5.12c-5.12-3.413-37.547-26.453-37.547-26.453
		s-32.427,23.04-37.547,26.453c-4.267,2.56-11.093,3.413-8.533-5.12c2.56-7.68,11.947-42.667,11.947-42.667
		s-29.867-22.187-33.28-24.747c-3.413-2.56-3.413-9.387,2.56-9.387c5.973-0.853,42.667-3.413,42.667-3.413
		s14.507-39.253,16.213-44.373c1.707-5.973,7.68-6.827,10.24,0c1.707,5.12,17.92,45.227,17.92,45.227
		S308.76,218.307,314.733,218.307"/>
</g>
<path style="fill:#51565F;" d="M251.733,503.467c-11.947,0-21.333-9.387-21.333-21.333c0-10.24,7.68-18.773,17.067-21.333V328.533
	c0-2.56,1.707-4.267,4.267-4.267c2.56,0,4.267,1.707,4.267,4.267V460.8c9.387,1.707,17.067,10.24,17.067,21.333
	C273.067,494.08,263.68,503.467,251.733,503.467z M251.733,469.333c-6.827,0-12.8,5.973-12.8,12.8s5.973,12.8,12.8,12.8
	c6.827,0,12.8-5.973,12.8-12.8S258.56,469.333,251.733,469.333z M439.467,471.04c-1.707,0-3.413-0.853-3.413-2.56l-7.68-14.507
	h-14.507c-1.707,0-3.413-0.853-4.267-2.56c-0.853-1.707,0-3.413,1.707-5.12l11.947-9.387l-5.12-13.653
	c-0.853-1.707,0-3.413,0.853-4.267c0.853-0.853,3.413-1.707,4.267-0.853l15.36,6.827l15.36-6.827c1.707-0.853,3.413,0,4.267,0.853
	c0.853,0.853,1.707,2.56,0.853,4.267l-5.12,14.507l11.947,9.387c1.707,0.853,1.707,3.413,1.707,5.12
	c-0.853,1.707-2.56,2.56-4.267,2.56h-14.507l-7.68,14.507C442.88,470.187,441.173,471.04,439.467,471.04z M425.813,445.44h5.12
	c1.707,0,3.413,0.853,3.413,2.56l5.12,9.387l5.12-9.387c0.853-1.707,2.56-2.56,3.413-2.56h4.267L448,442.027
	c-1.707-0.853-2.56-3.413-1.707-5.12l2.56-7.68l-7.68,3.413c-0.853,0.853-2.56,0.853-3.413,0l-7.68-3.413l2.56,7.68
	c0.853,1.707,0,3.413-1.707,5.12L425.813,445.44z M54.613,470.187c-0.853,0-0.853,0-1.707,0c-1.707-0.853-2.56-2.56-2.56-4.267
	v-14.507l-14.507-7.68c-1.707-0.853-2.56-2.56-2.56-3.413s0.853-3.413,2.56-3.413l14.507-7.68V414.72
	c0-1.707,0.853-3.413,2.56-4.267c1.707-0.853,3.413,0,5.12,1.707l9.387,11.947l13.653-5.12c1.707-0.853,3.413,0,4.267,0.853
	c0.853,0.853,1.707,3.413,0.853,4.267l-6.827,15.36l6.827,15.36c0.853,1.707,0,3.413-0.853,4.267
	c-0.853,0.853-2.56,1.707-4.267,0.853l-14.507-5.12l-9.387,11.947C57.173,469.333,56.32,470.187,54.613,470.187z M46.933,440.32
	l9.387,5.12c1.707,0.853,2.56,2.56,2.56,3.413v4.267l3.413-4.267c0.853-1.707,3.413-1.707,5.12-1.707l7.68,2.56l-3.413-7.68
	c-0.853-0.853-0.853-2.56,0-3.413l3.413-7.68l-7.68,2.56c-1.707,0.853-3.413,0-5.12-1.707l-3.413-4.267v5.12
	c0,1.707-0.853,3.413-2.56,3.413L46.933,440.32z M396.8,401.067c-0.853,0-2.56,0-3.413-0.853l-68.267-68.267
	c-0.853-0.853-0.853-1.707-0.853-3.413s0-2.56,0.853-3.413c1.707-1.707,4.267-1.707,5.973,0l68.267,68.267
	c0.853,0.853,0.853,1.707,0.853,3.413s0,2.56-0.853,3.413C398.507,401.067,397.653,401.067,396.8,401.067z M106.667,401.067
	c-0.853,0-2.56,0-3.413-0.853c-0.853-0.853-0.853-1.707-0.853-3.413s0-2.56,0.853-3.413l68.267-68.267
	c1.707-1.707,4.267-1.707,5.973,0c0.853,0.853,0.853,1.707,0.853,3.413s0,2.56-0.853,3.413l-68.267,68.267
	C109.227,401.067,107.52,401.067,106.667,401.067z M307.2,392.533c-5.12,0-8.533-3.413-8.533-8.533s3.413-8.533,8.533-8.533
	s8.533,3.413,8.533,8.533S312.32,392.533,307.2,392.533z M196.267,392.533c-5.12,0-8.533-3.413-8.533-8.533s3.413-8.533,8.533-8.533
	S204.8,378.88,204.8,384S201.387,392.533,196.267,392.533z M384,315.733c-5.12,0-8.533-3.413-8.533-8.533s3.413-8.533,8.533-8.533
	s8.533,3.413,8.533,8.533S389.12,315.733,384,315.733z M119.467,315.733c-5.12,0-8.533-3.413-8.533-8.533s3.413-8.533,8.533-8.533
	c5.12,0,8.533,3.413,8.533,8.533S124.587,315.733,119.467,315.733z M294.4,307.2c-2.56,0-5.12-0.853-7.68-2.56
	c-4.267-2.56-27.307-19.627-34.987-24.747c-7.68,5.12-30.72,22.187-34.987,24.747c-3.413,2.56-8.533,3.413-12.8,0.853
	c-1.707-1.707-4.267-4.267-1.707-11.093l11.093-39.253c-6.827-5.12-28.16-20.48-30.72-23.04c-3.413-2.56-4.267-6.827-3.413-11.093
	c0.853-3.413,4.267-5.973,8.533-6.827l40.107-3.413c3.413-8.533,13.653-37.547,15.36-41.813c1.707-4.267,4.267-7.68,8.533-7.68
	c4.267,0,7.68,2.56,9.387,7.68l17.067,42.667c8.533,0.853,33.28,2.56,37.547,3.413c4.267,0,6.827,2.56,8.533,6.827
	c0.853,4.267,0,8.533-3.413,11.093l-28.16,22.187c1.707,7.68,7.68,32.427,10.24,39.253c1.707,6.827-0.853,10.24-2.56,11.093
	C297.813,307.2,296.107,307.2,294.4,307.2z M251.733,270.507c0.853,0,1.707,0,2.56,0.853c0,0,32.427,23.04,36.693,26.453
	c0.853,0.853,1.707,0.853,2.56,0.853c0,0,0-0.853,0-1.707c-2.56-9.387-10.24-42.667-10.24-42.667c0-1.707,0-3.413,1.707-4.267
	l30.72-23.893c0.853-0.853,0.853-1.707,0.853-2.56c0,0,0-0.853-0.853-0.853c-5.12-0.853-40.107-3.413-40.107-3.413
	c-1.707,0-2.56-0.853-3.413-2.56l-17.92-45.227l0,0c-0.853-1.707-1.707-1.707-1.707-1.707s-0.853,0.853-0.853,1.707
	c-1.707,5.12-16.213,45.227-16.213,45.227c-0.853,1.707-1.707,2.56-3.413,2.56l-42.667,3.413c-0.853,0.853-0.853,1.707,0,1.707
	c3.413,2.56,33.28,23.893,33.28,23.893c1.707,0.853,1.707,2.56,1.707,4.267l-12.8,42.667c0,0.853,0,0.853,0,1.707
	c0.853,0,1.707-0.853,1.707-0.853c4.267-3.413,37.547-26.453,37.547-26.453C250.027,270.507,250.88,270.507,251.733,270.507z
	 M482.133,273.067c-10.24,0-18.773-7.68-21.333-17.067H345.6c-2.56,0-4.267-1.707-4.267-4.267c0-2.56,1.707-4.267,4.267-4.267h115.2
	c1.707-9.387,10.24-17.067,21.333-17.067c11.947,0,21.333,9.387,21.333,21.333C503.467,263.68,494.08,273.067,482.133,273.067z
	 M482.133,238.933c-6.827,0-12.8,5.973-12.8,12.8c0,6.827,5.973,12.8,12.8,12.8s12.8-5.973,12.8-12.8
	C494.933,244.907,488.96,238.933,482.133,238.933z M21.333,273.067C9.387,273.067,0,263.68,0,251.733
	C0,239.787,9.387,230.4,21.333,230.4c10.24,0,18.773,7.68,20.48,17.067h116.053c2.56,0,4.267,1.707,4.267,4.267
	c0,2.56-1.707,4.267-4.267,4.267H41.813C40.107,265.387,31.573,273.067,21.333,273.067z M21.333,238.933
	c-6.827,0-12.8,5.973-12.8,12.8c0,6.827,5.973,12.8,12.8,12.8s12.8-5.973,12.8-12.8C34.133,244.907,28.16,238.933,21.333,238.933z
	 M384,204.8c-5.12,0-8.533-3.413-8.533-8.533s3.413-8.533,8.533-8.533s8.533,3.413,8.533,8.533S389.12,204.8,384,204.8z
	 M119.467,204.8c-5.12,0-8.533-3.413-8.533-8.533s3.413-8.533,8.533-8.533c5.12,0,8.533,3.413,8.533,8.533
	S124.587,204.8,119.467,204.8z M320,187.733c-0.853,0-2.56,0-3.413-0.853c-0.853-0.853-0.853-1.707-0.853-3.413s0-2.56,0.853-3.413
	l76.8-76.8c1.707-1.707,4.267-1.707,5.973,0c0.853,0.853,0.853,1.707,0.853,3.413s0,2.56-0.853,3.413l-76.8,76.8
	C322.56,187.733,320.853,187.733,320,187.733z M183.467,187.733c-0.853,0-2.56,0-3.413-0.853l-76.8-76.8
	c-0.853-0.853-0.853-1.707-0.853-3.413s0-2.56,0.853-3.413c1.707-1.707,4.267-1.707,5.973,0l76.8,76.8
	c0.853,0.853,0.853,1.707,0.853,3.413s0,2.56-0.853,3.413C185.173,187.733,184.32,187.733,183.467,187.733z M251.733,136.533
	c-2.56,0-4.267-1.707-4.267-4.267V41.813c-9.387-1.707-17.067-10.24-17.067-20.48C230.4,9.387,239.787,0,251.733,0
	c11.947,0,21.333,9.387,21.333,21.333c0,10.24-7.68,18.773-17.067,20.48v90.453C256,134.827,254.293,136.533,251.733,136.533z
	 M251.733,8.533c-6.827,0-12.8,5.973-12.8,12.8s5.973,12.8,12.8,12.8c6.827,0,12.8-5.973,12.8-12.8S258.56,8.533,251.733,8.533z
	 M307.2,128c-5.12,0-8.533-3.413-8.533-8.533c0-5.12,3.413-8.533,8.533-8.533s8.533,3.413,8.533,8.533
	C315.733,124.587,312.32,128,307.2,128z M196.267,128c-5.12,0-8.533-3.413-8.533-8.533c0-5.12,3.413-8.533,8.533-8.533
	s8.533,3.413,8.533,8.533C204.8,124.587,201.387,128,196.267,128z M448.853,94.72c-0.853,0-2.56-0.853-3.413-1.707l-9.387-11.947
	l-13.653,5.12c-1.707,0.853-3.413,0-4.267-0.853s-1.707-3.413-0.853-4.267l6.827-15.36l-6.827-15.36
	c-0.853-1.707,0-3.413,0.853-4.267s2.56-1.707,4.267-0.853l14.507,5.12l9.387-11.947c0.853-1.707,3.413-1.707,5.12-1.707
	c1.707,0.853,2.56,2.56,2.56,4.267v14.507l14.507,7.68c1.707,0.853,2.56,2.56,2.56,3.413s-0.853,3.413-2.56,3.413l-14.507,7.68
	V92.16c0,1.707-0.853,3.413-2.56,4.267C449.707,94.72,448.853,94.72,448.853,94.72z M436.907,71.68c0.853,0,2.56,0.853,3.413,1.707
	l3.413,4.267v-5.12c0-1.707,0.853-3.413,2.56-3.413L455.68,64l-9.387-5.12c-1.707-0.853-2.56-2.56-2.56-3.413V51.2l-3.413,4.267
	c-0.853,1.707-3.413,2.56-5.12,1.707l-7.68-2.56l3.413,7.68c0.853,0.853,0.853,2.56,0,3.413l-3.413,7.68l7.68-2.56
	C436.053,71.68,436.907,71.68,436.907,71.68z M46.933,87.893c-0.853,0-1.707,0-2.56-0.853c-0.853-0.853-1.707-2.56-0.853-4.267
	l5.12-14.507L36.693,58.88c-1.707-0.853-1.707-3.413-1.707-5.12c0-1.707,2.56-2.56,4.267-2.56H53.76l7.68-14.507
	c1.707-2.56,5.973-2.56,7.68,0L76.8,51.2h14.507c1.707,0,3.413,0.853,4.267,2.56c0.853,1.707,0,3.413-1.707,5.12L81.92,68.266
	l5.12,13.653c0.853,1.707,0,3.413-0.853,4.267s-3.413,1.707-4.267,0.853l-15.36-6.827L51.2,87.04
	C48.64,87.893,47.787,87.893,46.933,87.893z M64,71.68c0.853,0,0.853,0,1.707,0l7.68,3.413l-2.56-7.68
	c-0.853-1.707,0-3.413,1.707-5.12L76.8,58.88h-5.12c-1.707,0-3.413-0.853-3.413-2.56l-5.12-9.387l-5.12,9.387
	c-0.853,1.707-2.56,2.56-3.413,2.56h-4.267l4.267,3.413c1.707,0.853,2.56,3.413,1.707,5.12l-2.56,7.68l7.68-3.413
	C63.147,71.68,64,71.68,64,71.68z"/>
<g>
</g>
<g>
</g>
<g>
</g>
<g>
</g>
<g>
</g>
<g>
</g>
<g>
</g>
<g>
</g>
<g>
</g>
<g>
</g>
<g>
</g>
<g>
</g>
<g>
</g>
<g>
</g>
<g>
</g>
</svg>
