<svg xmlns="http://www.w3.org/2000/svg" width="41.336" height="29.566" viewBox="0 0 41.336 29.566">
  <path id="Path_16" data-name="Path 16" d="M19.06,25.36a1.16,1.16,0,1,1-1.16,1.16A1.144,1.144,0,0,1,19.06,25.36Zm19-7.4a1.144,1.144,0,0,1-1.16-1.16,1.247,1.247,0,0,1,1.16-1.16,1.144,1.144,0,0,1,1.16,1.16A1.247,1.247,0,0,1,38.055,17.965Zm0-4.93a3.839,3.839,0,0,0-3.77,3.77,2.827,2.827,0,0,0,.145,1.16L22.1,24.49a3.731,3.731,0,0,0-6.38.435L4.7,19.125c-1.16-.58-2.03-2.61-1.885-4.35a2.34,2.34,0,0,1,.87-1.885,1.239,1.239,0,0,1,1.015,0H4.85c2.9,1.595,12.615,6.525,12.9,6.815a1.762,1.762,0,0,0,2.03-.145L39.65,9.265a.979.979,0,0,0,.58-.87,1.073,1.073,0,0,0-.58-.87c-1.16-.58-2.9-1.305-4.5-2.175-3.625-1.74-7.685-3.625-9.57-4.5a2.961,2.961,0,0,0-3.045,0L22.1,1C13.985,5.06,3.11,10.425,2.53,10.715A4.506,4.506,0,0,0,.645,14.34C.5,16.95,1.8,19.7,3.835,20.72L15.58,26.81a3.717,3.717,0,0,0,7.4-.435l12.905-6.96a3.411,3.411,0,0,0,2.32.725,3.839,3.839,0,0,0,3.77-3.77,4.052,4.052,0,0,0-3.915-3.335" transform="translate(-0.634 -0.434)" fill="#fff"/>
</svg>
