<?xml version="1.0" encoding="iso-8859-1"?>
<!-- Generator: Adobe Illustrator 19.0.0, SVG Export Plug-In . SVG Version: 6.00 Build 0)  -->
<svg version="1.1" id="Layer_1" xmlns="http://www.w3.org/2000/svg" xmlns:xlink="http://www.w3.org/1999/xlink" x="0px" y="0px"
	 viewBox="0 0 392.663 392.663" style="enable-background:new 0 0 392.663 392.663;" xml:space="preserve">
<rect x="49.713" y="21.851" style="fill:#FFFFFF;" width="218.505" height="348.962"/>
<rect x="93.414" y="65.422" style="fill:#56ACE0;" width="131.232" height="109.253"/>
<path style="fill:#FFC10D;" d="M181.204,299.507c0-7.176-10.408-25.277-22.174-41.697c-11.83,16.42-22.174,34.521-22.174,41.697
	c0,12.218,9.956,22.174,22.174,22.174C171.249,321.681,181.204,311.79,181.204,299.507z"/>
<g>
	<path style="fill:#194F82;" d="M235.507,222.513c-6.012,0-10.925,4.848-10.925,10.925v43.119c0,6.012,4.848,10.925,10.925,10.925
		c6.012,0,10.925-4.848,10.925-10.925v-43.119C246.497,227.491,241.519,222.513,235.507,222.513z"/>
	<path style="fill:#194F82;" d="M82.424,196.59h153.083c6.012,0,10.925-4.848,10.925-10.925V54.626
		c0-6.012-4.848-10.925-10.925-10.925H82.424c-6.012,0-10.925,4.848-10.925,10.925v131.038
		C71.564,191.677,76.412,196.59,82.424,196.59z M93.35,152.824h34.715c6.012,0,10.925-4.848,10.925-10.925
		c0-6.012-4.848-10.925-10.925-10.925H93.35v-21.786h56.566c6.012,0,10.925-4.848,10.925-10.925c0-6.077-4.848-10.925-10.925-10.925
		H93.35V65.422h131.297v109.253H93.35V152.824z"/>
	<path style="fill:#194F82;" d="M390.141,125.608l-46.028-56.307c-3.814-4.655-10.667-5.301-15.386-1.552
		c-4.655,3.814-5.301,10.667-1.552,15.386l43.572,53.333v174.222c0,9.762-7.952,17.648-17.648,17.648
		c-9.697,0-17.648-7.887-17.648-17.648v-83.523c0-6.012-4.848-10.925-10.925-10.925h-34.457V10.925
		C290.069,4.913,285.22,0,279.143,0H38.853C32.84,0,27.927,4.848,27.927,10.925v359.887H10.925C4.913,370.812,0,375.661,0,381.737
		c0,6.012,4.848,10.925,10.925,10.925h296.081c6.012,0,10.925-4.849,10.925-10.925c0-6.012-4.848-10.925-10.925-10.925h-16.937
		V238.158h23.661v72.598c0,21.786,17.713,39.499,39.499,39.499c21.786,0,39.434-17.778,39.434-39.564V132.525
		C392.598,130.004,391.758,127.547,390.141,125.608z M268.283,370.812H49.778V21.851h218.505V370.812L268.283,370.812z"/>
	<path style="fill:#194F82;" d="M150.497,232.857c-5.947,7.434-35.491,45.576-35.491,66.586c0,24.242,19.717,43.96,44.024,43.96
		s43.96-19.717,43.96-43.96c0-21.01-29.543-59.216-35.491-66.586C163.62,227.62,155.345,227.297,150.497,232.857z M159.03,321.745
		c-12.218,0-22.174-9.956-22.174-22.174c0-7.176,10.408-25.277,22.174-41.697c11.83,16.485,22.174,34.457,22.174,41.697
		C181.204,311.79,171.249,321.745,159.03,321.745z"/>
</g>
<g>
</g>
<g>
</g>
<g>
</g>
<g>
</g>
<g>
</g>
<g>
</g>
<g>
</g>
<g>
</g>
<g>
</g>
<g>
</g>
<g>
</g>
<g>
</g>
<g>
</g>
<g>
</g>
<g>
</g>
</svg>
