<?xml version="1.0" encoding="iso-8859-1"?>
<!-- Generator: Adobe Illustrator 19.0.0, SVG Export Plug-In . SVG Version: 6.00 Build 0)  -->
<svg version="1.1" id="Layer_1" xmlns="http://www.w3.org/2000/svg" xmlns:xlink="http://www.w3.org/1999/xlink" x="0px" y="0px"
	 viewBox="0 0 512 512" style="enable-background:new 0 0 512 512;" xml:space="preserve">
<rect x="309.89" y="8.103" style="fill:#E7ECED;" width="70.057" height="43.112"/>
<g>
	<polygon style="fill:#546A79;" points="455.395,460.784 455.395,503.897 56.604,503.897 56.604,460.784 94.328,460.784 
		417.672,460.784 	"/>
	<polygon style="fill:#546A79;" points="455.395,256 455.395,299.112 417.672,299.112 94.328,299.112 56.604,299.112 56.604,256 
		94.328,256 417.672,256 	"/>
	<polygon style="fill:#546A79;" points="455.395,51.215 455.395,94.328 417.672,94.328 94.328,94.328 56.604,94.328 56.604,51.215 
		309.89,51.215 379.949,51.215 	"/>
</g>
<g>
	<rect x="94.329" y="299.108" style="fill:#AFB6BB;" width="323.341" height="161.671"/>
	<rect x="94.329" y="94.329" style="fill:#AFB6BB;" width="323.341" height="161.671"/>
</g>
<g>
	<rect x="94.329" y="94.329" style="fill:#9DA4A9;" width="161.671" height="161.671"/>
	<rect x="94.329" y="299.108" style="fill:#9DA4A9;" width="161.671" height="161.671"/>
</g>
<path d="M463.499,102.431V43.112h-75.447V0h-86.264v43.112H48.501v59.318h37.724v145.467H48.501v59.318h37.724v145.467H48.501V512
	h414.997v-59.318h-37.724V307.215h37.724v-59.318h-37.724V102.431H463.499z M317.993,16.206h53.851v26.906h-53.851V16.206z
	 M64.707,59.318h382.585v26.906H64.707V59.318z M447.293,495.794H64.707v-26.906h382.585v26.906H447.293z M409.569,452.682H102.431
	v-96.965h234.404v-16.206H102.431v-32.296h307.137V452.682z M447.293,291.009H64.707v-26.906h382.585v26.906H447.293z
	 M409.569,247.897H102.431v-96.965h234.404v-16.206H102.431v-32.295h307.137V247.897z"/>
<rect x="353.009" y="134.725" style="fill:#FFFFFF;" width="26.945" height="16.206"/>
<rect x="353.009" y="339.515" width="26.945" height="16.206"/>
<rect x="132.046" y="210.17" width="21.556" height="16.206"/>
<rect x="153.611" y="188.616" width="21.556" height="16.206"/>
<g>
	<rect x="358.389" y="409.568" style="fill:#FFFFFF;" width="21.556" height="16.206"/>
	<rect x="336.835" y="388.014" style="fill:#FFFFFF;" width="21.556" height="16.206"/>
</g>
<g>
</g>
<g>
</g>
<g>
</g>
<g>
</g>
<g>
</g>
<g>
</g>
<g>
</g>
<g>
</g>
<g>
</g>
<g>
</g>
<g>
</g>
<g>
</g>
<g>
</g>
<g>
</g>
<g>
</g>
</svg>
