<?xml version="1.0" encoding="iso-8859-1"?>
<!-- Generator: Adobe Illustrator 19.0.0, SVG Export Plug-In . SVG Version: 6.00 Build 0)  -->
<svg version="1.1" id="Layer_1" xmlns="http://www.w3.org/2000/svg" xmlns:xlink="http://www.w3.org/1999/xlink" x="0px" y="0px"
	 viewBox="0 0 512.001 512.001" style="enable-background:new 0 0 512.001 512.001;" xml:space="preserve">
<path style="fill:#56545A;" d="M315.085,469.988c-31.635,0-61.38-12.249-83.85-34.552c-22.684-22.517-35.177-52.52-35.177-84.483
	h42.012c0,20.683,8.083,40.095,22.762,54.665c14.538,14.431,33.789,22.356,54.26,22.358c0.197,0,0.391-0.001,0.588-0.003
	c42.147-0.312,76.435-35.415,76.435-78.251V175.695c0-28.055,10.925-54.43,30.763-74.267l59.415-59.415l29.707,29.707
	l-59.415,59.415c-11.902,11.902-18.457,27.728-18.457,44.56v174.028c0,65.831-52.996,119.779-118.135,120.263
	C315.691,469.987,315.387,469.988,315.085,469.988z"/>
<rect x="357.106" y="189.911" style="fill:#88888F;" width="112.033" height="42.012"/>
<path style="fill:#FF4F19;" d="M238.07,469.988V119.885c0-23.107-18.906-42.012-42.012-42.012H42.012
	C18.906,77.872,0,96.778,0,119.885v350.104H238.07z"/>
<path style="fill:#AF2E08;" d="M196.058,77.872h-77.023v392.116H238.07V119.885C238.07,96.778,219.165,77.872,196.058,77.872z"/>
<rect x="63.019" y="140.896" style="fill:#98C8ED;" width="112.033" height="42.012"/>
<rect x="119.035" y="140.896" style="fill:#7AB9E8;" width="56.017" height="42.012"/>
<polygon style="fill:#FFDB2D;" points="119.035,385.963 119.035,336.949 63.019,336.949 119.035,245.922 119.035,294.936 
	175.052,294.936 "/>
<g>
</g>
<g>
</g>
<g>
</g>
<g>
</g>
<g>
</g>
<g>
</g>
<g>
</g>
<g>
</g>
<g>
</g>
<g>
</g>
<g>
</g>
<g>
</g>
<g>
</g>
<g>
</g>
<g>
</g>
</svg>
