<?xml version="1.0" encoding="iso-8859-1"?>
<!-- Generator: Adobe Illustrator 19.0.0, SVG Export Plug-In . SVG Version: 6.00 Build 0)  -->
<svg version="1.1" id="Layer_1" xmlns="http://www.w3.org/2000/svg" xmlns:xlink="http://www.w3.org/1999/xlink" x="0px" y="0px"
	 viewBox="0 0 496 496" style="enable-background:new 0 0 496 496;" xml:space="preserve">
<path style="fill:#40BF16;" d="M430.706,0h-154.4c-7.2,0-11.2,1.6-11.2,7.2v28V36v52v-0.8l-192,128v209.6
	c0,51.2,21.6,71.2,72.8,71.2h223.2c51.2,0,72-1.6,72-52.8V164.8c0-4,0-7.2,0-11.2c0-0.8,0-0.8,0-1.6V34.4v-3.2v-24
	C441.106,1.6,437.906,0,430.706,0z M313.106,88V48h80v40h-15.2H313.106z"/>
<path style="fill:#239B02;" d="M145.106,496h224c51.2,0,72-1.6,72-52.8V164.8c0-4,0-7.2,0-11.2c0-0.8,0-0.8,0-1.6V34.4V32
	 M265.106,87.2L265.106,87.2l-62.4,82.4l-129.6,44.8"/>
<path style="fill:#227208;" d="M339.506,152h-78.4l-132,88v143.2c0,35.2,16.8,48.8,52,48.8h152.8c35.2,0,51.2-0.8,51.2-36V205.6
	C385.106,170.4,374.706,152,339.506,152z"/>
<path style="fill:#FF5512;" d="M239.506,56.8c5.6,8.8,0,15.2-8.8,20.8l-129.6,83.2c-8.8,5.6-16.8,8-22.4-0.8l-20.8-32.8
	c-5.6-8.8-3.2-20,5.6-25.6l129.6-83.2c8.8-5.6,20-3.2,25.6,5.6L239.506,56.8z"/>
<path style="fill:#CC3006;" d="M218.706,24.8l20.8,32.8c5.6,8.8,0,15.2-8.8,20.8l-129.6,82.4c-8.8,5.6-16.8,8-22.4-0.8l-20.8-32.8"
	/>
<rect x="105.978" y="117.454" transform="matrix(-0.8426 0.5386 -0.5386 -0.8426 382.6725 140.6533)" style="fill:#252828;" width="129.604" height="17.601"/>
<g>
	<path style="fill:#A52713;" d="M100.306,136c1.6,2.4,0.8,4.8-1.6,6.4l0,0c-2.4,1.6-4.8,0.8-6.4-1.6l-14.4-23.2
		c-1.6-2.4-0.8-4.8,1.6-6.4l0,0c2.4-1.6,4.8-0.8,6.4,1.6L100.306,136z"/>
	<path style="fill:#A52713;" d="M123.506,120.8c1.6,2.4,0.8,4.8-1.6,6.4l0,0c-2.4,1.6-4.8,0.8-6.4-1.6l-14.4-23.2
		c-1.6-2.4-0.8-4.8,1.6-6.4l0,0c2.4-1.6,4.8-0.8,6.4,1.6L123.506,120.8z"/>
	<path style="fill:#A52713;" d="M146.706,105.6c1.6,2.4,0.8,4.8-1.6,6.4l0,0c-2.4,1.6-4.8,0.8-6.4-1.6l-14.4-22.4
		c-1.6-2.4-0.8-4.8,1.6-6.4l0,0c2.4-1.6,4.8-0.8,6.4,1.6L146.706,105.6z"/>
	<path style="fill:#A52713;" d="M169.906,91.2c1.6,2.4,0.8,4.8-1.6,6.4l0,0c-2.4,1.6-4.8,0.8-6.4-1.6l-14.4-23.2
		c-1.6-2.4-0.8-4.8,1.6-6.4l0,0c2.4-1.6,4.8-0.8,6.4,1.6L169.906,91.2z"/>
	<path style="fill:#A52713;" d="M193.106,76c1.6,2.4,0.8,4.8-1.6,6.4l0,0c-2.4,1.6-4.8,0.8-6.4-1.6l-14.4-23.2
		c-1.6-1.6-0.8-4,1.6-5.6l0,0c2.4-1.6,4.8-0.8,6.4,1.6L193.106,76z"/>
	<path style="fill:#A52713;" d="M216.306,61.6c1.6,2.4,0.8,4.8-1.6,6.4l0,0c-2.4,1.6-4.8,0.8-6.4-1.6l-14.4-23.2
		c-1.6-2.4-0.8-4.8,1.6-6.4l0,0c2.4-1.6,4.8-0.8,6.4,1.6L216.306,61.6z"/>
</g>
<path style="fill:#239B02;" d="M265.906,320c-2.4,2.4-7.2,2.4-10.4,0l0,0c-2.4-2.4-2.4-7.2,0-10.4l64.8-64.8c2.4-2.4,7.2-2.4,10.4,0
	l0,0c2.4,2.4,2.4,7.2,0,10.4L265.906,320z"/>
<path style="fill:#40BF16;" d="M249.106,320c2.4,2.4,7.2,2.4,10.4,0l0,0c2.4-2.4,2.4-7.2,0-10.4l-64.8-64.8c-2.4-2.4-7.2-2.4-10.4,0
	l0,0c-2.4,2.4-2.4,7.2,0,10.4L249.106,320z"/>
<g>
	<path style="fill:#239B02;" d="M249.106,318.4c2.4-2.4,7.2-2.4,10.4,0l0,0c2.4,2.4,2.4,7.2,0,10.4l-64.8,64.8
		c-2.4,2.4-7.2,2.4-10.4,0l0,0c-2.4-2.4-2.4-7.2,0-10.4L249.106,318.4z"/>
	<path style="fill:#239B02;" d="M265.906,318.4c-2.4-2.4-7.2-2.4-10.4,0l0,0c-2.4,2.4-2.4,7.2,0,10.4l64.8,64.8
		c2.4,2.4,7.2,2.4,10.4,0l0,0c2.4-2.4,2.4-7.2,0-10.4L265.906,318.4z"/>
</g>
<g>
</g>
<g>
</g>
<g>
</g>
<g>
</g>
<g>
</g>
<g>
</g>
<g>
</g>
<g>
</g>
<g>
</g>
<g>
</g>
<g>
</g>
<g>
</g>
<g>
</g>
<g>
</g>
<g>
</g>
</svg>
