<?xml version="1.0" encoding="iso-8859-1"?>
<!-- Generator: Adobe Illustrator 19.0.0, SVG Export Plug-In . SVG Version: 6.00 Build 0)  -->
<svg version="1.1" id="Layer_1" xmlns="http://www.w3.org/2000/svg" xmlns:xlink="http://www.w3.org/1999/xlink" x="0px" y="0px"
	 viewBox="0 0 507.013 507.013" style="enable-background:new 0 0 507.013 507.013;" xml:space="preserve">
<g>
	<path style="fill:#C6421E;" d="M366.464,100.408c0,6.927-5.622,12.549-12.549,12.549H178.229c-6.927,0-12.549-5.622-12.549-12.549
		V75.31c0-6.927,5.622-12.549,12.549-12.549h175.686c6.927,0,12.549,5.622,12.549,12.549V100.408z M504.463,159.329L411.128,19.332
		c-2.811-4.227-7.56-6.766-12.639-6.766H133.655c-5.08,0-9.828,2.54-12.639,6.766L27.681,159.329c-1.667,2.49-2.55,5.421-2.55,8.423
		v311.507c0,8.393,6.797,15.189,15.189,15.189h451.504c8.393,0,15.189-6.797,15.189-15.189V167.752
		C507.013,164.75,506.13,161.818,504.463,159.329L504.463,159.329z"/>
	<g>
		<path style="fill:#7A1B0B;" d="M101.566,48.502L65.596,20.593c-5.692-4.407-13.884-3.313-18.201,2.45L2.58,82.796
			c-4.206,5.602-3.162,13.543,2.359,17.86l40.619,31.854L101.566,48.502z"/>
		<path style="fill:#7A1B0B;" d="M318.15,333.82H213.993c-4.508,0-8.162-3.654-8.162-8.152V241.58c0-4.498,3.654-8.152,8.162-8.152
			H318.15c4.508,0,8.152,3.654,8.152,8.152v84.088C326.302,330.166,322.658,333.82,318.15,333.82"/>
		<path style="fill:#7A1B0B;" d="M175.717,213.35c-2.57,0-5.14-0.984-7.098-2.941l-40.157-40.157c-3.925-3.925-3.925-10.27,0-14.195
			c3.925-3.925,10.27-3.925,14.195,0l40.157,40.157c3.925,3.925,3.925,10.27,0,14.195
			C180.857,212.366,178.287,213.35,175.717,213.35"/>
		<path style="fill:#7A1B0B;" d="M356.423,213.35c-2.57,0-5.14-0.984-7.098-2.941c-3.925-3.925-3.925-10.27,0-14.195l40.157-40.157
			c3.925-3.925,10.27-3.925,14.195,0c3.925,3.925,3.925,10.27,0,14.195l-40.157,40.157
			C361.563,212.366,358.993,213.35,356.423,213.35"/>
		<path style="fill:#7A1B0B;" d="M396.58,414.134c-2.57,0-5.14-0.984-7.098-2.941l-40.157-40.157c-3.925-3.925-3.925-10.27,0-14.195
			c3.925-3.925,10.27-3.925,14.195,0l40.157,40.157c3.925,3.925,3.925,10.27,0,14.195C401.72,413.15,399.15,414.134,396.58,414.134"
			/>
		<path style="fill:#7A1B0B;" d="M135.56,414.134c-2.57,0-5.14-0.984-7.098-2.941c-3.925-3.925-3.925-10.27,0-14.195l40.157-40.157
			c3.925-3.925,10.27-3.925,14.195,0c3.925,3.925,3.925,10.27,0,14.195l-40.157,40.157C140.7,413.15,138.13,414.134,135.56,414.134"
			/>
	</g>
</g>
<g>
</g>
<g>
</g>
<g>
</g>
<g>
</g>
<g>
</g>
<g>
</g>
<g>
</g>
<g>
</g>
<g>
</g>
<g>
</g>
<g>
</g>
<g>
</g>
<g>
</g>
<g>
</g>
<g>
</g>
</svg>
