<svg width="585" height="585" viewBox="0 0 585 585" fill="none" xmlns="http://www.w3.org/2000/svg">
<path d="M493.568 346.218C482.889 386.047 460.639 421.815 429.632 448.999C398.625 476.183 360.254 493.561 319.37 498.937C278.486 504.314 236.926 497.445 199.946 479.201C162.965 460.958 132.225 432.157 111.613 396.443C91.0002 360.728 81.4413 319.704 84.1447 278.557C86.848 237.409 101.692 197.988 126.8 165.277C151.908 132.567 186.152 108.036 225.201 94.787C264.251 81.5382 306.352 80.1665 346.181 90.8453L292.188 292.225L493.568 346.218Z" fill="#2253F4"/>
<path d="M454.574 161.459C475.196 187.067 489.468 217.189 496.227 249.365C502.986 281.542 502.039 314.86 493.464 346.601L292.188 292.225L454.574 161.459Z" fill="#304898"/>
<path d="M376.997 101.761C407.067 115.151 433.54 135.47 454.249 161.056L292.188 292.225L376.997 101.761Z" fill="#102157"/>
<path d="M346.525 91.1289C357.001 93.9394 367.241 97.563 377.153 101.967L292.5 292.5L346.525 91.1289Z" fill="#ECECEC"/>
<path d="M380.017 51.0716L380.049 50.5987L379.699 50.5745L379.574 50.9031L380.017 51.0716ZM367.221 83.3868L363.421 87.0135L368.537 88.9592L368.107 83.7238L367.221 83.3868ZM379.574 50.9031L367.052 83.8299L367.938 84.1669L380.46 51.2401L379.574 50.9031ZM379.984 51.5445L395.64 52.6229L395.705 51.677L380.049 50.5987L379.984 51.5445Z" fill="white"/>
<path d="M446.385 85.2036L446.418 84.7307L446.067 84.7065L445.942 85.0351L446.385 85.2036ZM433.589 117.519L429.789 121.145L434.905 123.091L434.475 117.856L433.589 117.519ZM445.942 85.0351L433.42 117.962L434.307 118.299L446.828 85.3721L445.942 85.0351ZM446.352 85.6766L462.008 86.7549L462.073 85.809L446.418 84.7307L446.352 85.6766Z" fill="white"/>
<path d="M452.452 64.7687V78.7687H449.212V67.3687H446.412V64.7687H452.452ZM465.344 76.1287V78.7687H454.764V76.6687L460.164 71.5687C460.737 71.0221 461.124 70.5554 461.324 70.1687C461.524 69.7687 461.624 69.3754 461.624 68.9887C461.624 68.4287 461.431 68.0021 461.044 67.7087C460.671 67.4021 460.117 67.2487 459.384 67.2487C458.771 67.2487 458.217 67.3687 457.724 67.6087C457.231 67.8354 456.817 68.1821 456.484 68.6487L454.124 67.1287C454.671 66.3154 455.424 65.6821 456.384 65.2287C457.344 64.7621 458.444 64.5287 459.684 64.5287C460.724 64.5287 461.631 64.7021 462.404 65.0487C463.191 65.3821 463.797 65.8621 464.224 66.4887C464.664 67.1021 464.884 67.8287 464.884 68.6687C464.884 69.4287 464.724 70.1421 464.404 70.8087C464.084 71.4754 463.464 72.2354 462.544 73.0887L459.324 76.1287H465.344ZM468.716 78.9287C468.17 78.9287 467.71 78.7421 467.336 78.3687C466.963 77.9954 466.776 77.5287 466.776 76.9687C466.776 76.3954 466.963 75.9354 467.336 75.5887C467.71 75.2287 468.17 75.0487 468.716 75.0487C469.263 75.0487 469.723 75.2287 470.096 75.5887C470.47 75.9354 470.656 76.3954 470.656 76.9687C470.656 77.5287 470.47 77.9954 470.096 78.3687C469.723 78.7421 469.263 78.9287 468.716 78.9287ZM476.911 70.0287C478.884 70.0287 480.337 70.4221 481.271 71.2087C482.217 71.9954 482.691 73.0487 482.691 74.3687C482.691 75.2221 482.477 76.0021 482.051 76.7087C481.624 77.4021 480.971 77.9621 480.091 78.3887C479.224 78.8021 478.151 79.0087 476.871 79.0087C475.884 79.0087 474.911 78.8821 473.951 78.6287C473.004 78.3621 472.197 77.9887 471.531 77.5087L472.811 75.0287C473.344 75.4287 473.957 75.7421 474.651 75.9687C475.344 76.1821 476.057 76.2887 476.791 76.2887C477.604 76.2887 478.244 76.1287 478.711 75.8087C479.177 75.4887 479.411 75.0421 479.411 74.4687C479.411 73.8687 479.164 73.4154 478.671 73.1087C478.191 72.8021 477.351 72.6487 476.151 72.6487H472.571L473.291 64.7687H481.831V67.3687H475.991L475.771 70.0287H476.911ZM487.05 72.3287C486.023 72.3287 485.183 71.9821 484.53 71.2887C483.89 70.5821 483.57 69.6421 483.57 68.4687C483.57 67.2954 483.89 66.3621 484.53 65.6687C485.183 64.9621 486.023 64.6087 487.05 64.6087C488.076 64.6087 488.91 64.9621 489.55 65.6687C490.19 66.3621 490.51 67.2954 490.51 68.4687C490.51 69.6421 490.19 70.5821 489.55 71.2887C488.91 71.9821 488.076 72.3287 487.05 72.3287ZM495.39 64.7687H497.77L488.21 78.7687H485.83L495.39 64.7687ZM487.05 70.6887C487.503 70.6887 487.856 70.5021 488.11 70.1287C488.376 69.7554 488.51 69.2021 488.51 68.4687C488.51 67.7354 488.376 67.1821 488.11 66.8087C487.856 66.4354 487.503 66.2487 487.05 66.2487C486.61 66.2487 486.256 66.4421 485.99 66.8287C485.723 67.2021 485.59 67.7487 485.59 68.4687C485.59 69.1887 485.723 69.7421 485.99 70.1287C486.256 70.5021 486.61 70.6887 487.05 70.6887ZM496.55 78.9287C495.883 78.9287 495.283 78.7754 494.75 78.4687C494.23 78.1487 493.823 77.6954 493.53 77.1087C493.236 76.5221 493.09 75.8421 493.09 75.0687C493.09 74.2954 493.236 73.6154 493.53 73.0287C493.823 72.4421 494.23 71.9954 494.75 71.6887C495.283 71.3687 495.883 71.2087 496.55 71.2087C497.576 71.2087 498.41 71.5621 499.05 72.2687C499.703 72.9621 500.03 73.8954 500.03 75.0687C500.03 76.2421 499.703 77.1821 499.05 77.8887C498.41 78.5821 497.576 78.9287 496.55 78.9287ZM496.55 77.2887C497.003 77.2887 497.356 77.1021 497.61 76.7287C497.876 76.3421 498.01 75.7887 498.01 75.0687C498.01 74.3487 497.876 73.8021 497.61 73.4287C497.356 73.0421 497.003 72.8487 496.55 72.8487C496.11 72.8487 495.756 73.0354 495.49 73.4087C495.223 73.7821 495.09 74.3354 495.09 75.0687C495.09 75.8021 495.223 76.3554 495.49 76.7287C495.756 77.1021 496.11 77.2887 496.55 77.2887Z" fill="white"/>
<path d="M391.915 35.2645V37.9045H381.335V35.8045L386.735 30.7045C387.309 30.1579 387.695 29.6912 387.895 29.3045C388.095 28.9045 388.195 28.5112 388.195 28.1245C388.195 27.5645 388.002 27.1379 387.615 26.8445C387.242 26.5379 386.689 26.3845 385.955 26.3845C385.342 26.3845 384.789 26.5045 384.295 26.7445C383.802 26.9712 383.389 27.3179 383.055 27.7845L380.695 26.2645C381.242 25.4512 381.995 24.8179 382.955 24.3645C383.915 23.8979 385.015 23.6645 386.255 23.6645C387.295 23.6645 388.202 23.8379 388.975 24.1845C389.762 24.5179 390.369 24.9979 390.795 25.6245C391.235 26.2379 391.455 26.9645 391.455 27.8045C391.455 28.5645 391.295 29.2779 390.975 29.9445C390.655 30.6112 390.035 31.3712 389.115 32.2245L385.895 35.2645H391.915ZM395.287 38.0645C394.741 38.0645 394.281 37.8779 393.907 37.5045C393.534 37.1312 393.347 36.6645 393.347 36.1045C393.347 35.5312 393.534 35.0712 393.907 34.7245C394.281 34.3645 394.741 34.1845 395.287 34.1845C395.834 34.1845 396.294 34.3645 396.667 34.7245C397.041 35.0712 397.227 35.5312 397.227 36.1045C397.227 36.6645 397.041 37.1312 396.667 37.5045C396.294 37.8779 395.834 38.0645 395.287 38.0645ZM403.482 29.1645C405.455 29.1645 406.909 29.5579 407.842 30.3445C408.789 31.1312 409.262 32.1845 409.262 33.5045C409.262 34.3579 409.049 35.1379 408.622 35.8445C408.195 36.5379 407.542 37.0979 406.662 37.5245C405.795 37.9379 404.722 38.1445 403.442 38.1445C402.455 38.1445 401.482 38.0179 400.522 37.7645C399.575 37.4979 398.769 37.1245 398.102 36.6445L399.382 34.1645C399.915 34.5645 400.529 34.8779 401.222 35.1045C401.915 35.3179 402.629 35.4245 403.362 35.4245C404.175 35.4245 404.815 35.2645 405.282 34.9445C405.749 34.6245 405.982 34.1779 405.982 33.6045C405.982 33.0045 405.735 32.5512 405.242 32.2445C404.762 31.9379 403.922 31.7845 402.722 31.7845H399.142L399.862 23.9045H408.402V26.5045H402.562L402.342 29.1645H403.482ZM413.621 31.4645C412.594 31.4645 411.754 31.1179 411.101 30.4245C410.461 29.7179 410.141 28.7779 410.141 27.6045C410.141 26.4312 410.461 25.4979 411.101 24.8045C411.754 24.0979 412.594 23.7445 413.621 23.7445C414.648 23.7445 415.481 24.0979 416.121 24.8045C416.761 25.4979 417.081 26.4312 417.081 27.6045C417.081 28.7779 416.761 29.7179 416.121 30.4245C415.481 31.1179 414.648 31.4645 413.621 31.4645ZM421.961 23.9045H424.341L414.781 37.9045H412.401L421.961 23.9045ZM413.621 29.8245C414.074 29.8245 414.428 29.6379 414.681 29.2645C414.948 28.8912 415.081 28.3379 415.081 27.6045C415.081 26.8712 414.948 26.3179 414.681 25.9445C414.428 25.5712 414.074 25.3845 413.621 25.3845C413.181 25.3845 412.828 25.5779 412.561 25.9645C412.294 26.3379 412.161 26.8845 412.161 27.6045C412.161 28.3245 412.294 28.8779 412.561 29.2645C412.828 29.6379 413.181 29.8245 413.621 29.8245ZM423.121 38.0645C422.454 38.0645 421.854 37.9112 421.321 37.6045C420.801 37.2845 420.394 36.8312 420.101 36.2445C419.808 35.6579 419.661 34.9779 419.661 34.2045C419.661 33.4312 419.808 32.7512 420.101 32.1645C420.394 31.5779 420.801 31.1312 421.321 30.8245C421.854 30.5045 422.454 30.3445 423.121 30.3445C424.148 30.3445 424.981 30.6979 425.621 31.4045C426.274 32.0979 426.601 33.0312 426.601 34.2045C426.601 35.3779 426.274 36.3179 425.621 37.0245C424.981 37.7179 424.148 38.0645 423.121 38.0645ZM423.121 36.4245C423.574 36.4245 423.928 36.2379 424.181 35.8645C424.448 35.4779 424.581 34.9245 424.581 34.2045C424.581 33.4845 424.448 32.9379 424.181 32.5645C423.928 32.1779 423.574 31.9845 423.121 31.9845C422.681 31.9845 422.328 32.1712 422.061 32.5445C421.794 32.9179 421.661 33.4712 421.661 34.2045C421.661 34.9379 421.794 35.4912 422.061 35.8645C422.328 36.2379 422.681 36.4245 423.121 36.4245Z" fill="white"/>
<path d="M526.974 196.133L527.007 195.66L526.656 195.635L526.531 195.964L526.974 196.133ZM514.178 228.448L510.378 232.074L515.495 234.02L515.064 228.785L514.178 228.448ZM526.531 195.964L514.01 228.891L514.896 229.228L527.417 196.301L526.531 195.964ZM526.942 196.606L542.597 197.684L542.662 196.738L527.007 195.66L526.942 196.606Z" fill="white"/>
<path d="M538.163 186.89V189.53H527.583V187.43L532.983 182.33C533.557 181.784 533.943 181.317 534.143 180.93C534.343 180.53 534.443 180.137 534.443 179.75C534.443 179.19 534.25 178.764 533.863 178.47C533.49 178.164 532.937 178.01 532.203 178.01C531.59 178.01 531.037 178.13 530.543 178.37C530.05 178.597 529.637 178.944 529.303 179.41L526.943 177.89C527.49 177.077 528.243 176.444 529.203 175.99C530.163 175.524 531.263 175.29 532.503 175.29C533.543 175.29 534.45 175.464 535.223 175.81C536.01 176.144 536.617 176.624 537.043 177.25C537.483 177.864 537.703 178.59 537.703 179.43C537.703 180.19 537.543 180.904 537.223 181.57C536.903 182.237 536.283 182.997 535.363 183.85L532.143 186.89H538.163ZM545.461 189.77C544.301 189.77 543.268 189.484 542.361 188.91C541.454 188.337 540.741 187.51 540.221 186.43C539.714 185.337 539.461 184.037 539.461 182.53C539.461 181.024 539.714 179.73 540.221 178.65C540.741 177.557 541.454 176.724 542.361 176.15C543.268 175.577 544.301 175.29 545.461 175.29C546.621 175.29 547.654 175.577 548.561 176.15C549.468 176.724 550.174 177.557 550.681 178.65C551.201 179.73 551.461 181.024 551.461 182.53C551.461 184.037 551.201 185.337 550.681 186.43C550.174 187.51 549.468 188.337 548.561 188.91C547.654 189.484 546.621 189.77 545.461 189.77ZM545.461 187.03C546.314 187.03 546.981 186.664 547.461 185.93C547.954 185.197 548.201 184.064 548.201 182.53C548.201 180.997 547.954 179.864 547.461 179.13C546.981 178.397 546.314 178.03 545.461 178.03C544.621 178.03 543.954 178.397 543.461 179.13C542.981 179.864 542.741 180.997 542.741 182.53C542.741 184.064 542.981 185.197 543.461 185.93C543.954 186.664 544.621 187.03 545.461 187.03ZM556.275 183.09C555.249 183.09 554.409 182.744 553.755 182.05C553.115 181.344 552.795 180.404 552.795 179.23C552.795 178.057 553.115 177.124 553.755 176.43C554.409 175.724 555.249 175.37 556.275 175.37C557.302 175.37 558.135 175.724 558.775 176.43C559.415 177.124 559.735 178.057 559.735 179.23C559.735 180.404 559.415 181.344 558.775 182.05C558.135 182.744 557.302 183.09 556.275 183.09ZM564.615 175.53H566.995L557.435 189.53H555.055L564.615 175.53ZM556.275 181.45C556.729 181.45 557.082 181.264 557.335 180.89C557.602 180.517 557.735 179.964 557.735 179.23C557.735 178.497 557.602 177.944 557.335 177.57C557.082 177.197 556.729 177.01 556.275 177.01C555.835 177.01 555.482 177.204 555.215 177.59C554.949 177.964 554.815 178.51 554.815 179.23C554.815 179.95 554.949 180.504 555.215 180.89C555.482 181.264 555.835 181.45 556.275 181.45ZM565.775 189.69C565.109 189.69 564.509 189.537 563.975 189.23C563.455 188.91 563.049 188.457 562.755 187.87C562.462 187.284 562.315 186.604 562.315 185.83C562.315 185.057 562.462 184.377 562.755 183.79C563.049 183.204 563.455 182.757 563.975 182.45C564.509 182.13 565.109 181.97 565.775 181.97C566.802 181.97 567.635 182.324 568.275 183.03C568.929 183.724 569.255 184.657 569.255 185.83C569.255 187.004 568.929 187.944 568.275 188.65C567.635 189.344 566.802 189.69 565.775 189.69ZM565.775 188.05C566.229 188.05 566.582 187.864 566.835 187.49C567.102 187.104 567.235 186.55 567.235 185.83C567.235 185.11 567.102 184.564 566.835 184.19C566.582 183.804 566.229 183.61 565.775 183.61C565.335 183.61 564.982 183.797 564.715 184.17C564.449 184.544 564.315 185.097 564.315 185.83C564.315 186.564 564.449 187.117 564.715 187.49C564.982 187.864 565.335 188.05 565.775 188.05Z" fill="white"/>
<path d="M110.473 467.964L110.441 468.437L110.792 468.461L110.917 468.132L110.473 467.964ZM123.27 435.649L127.07 432.022L121.953 430.076L122.383 435.312L123.27 435.649ZM110.917 468.132L123.438 435.205L122.552 434.868L110.03 467.795L110.917 468.132ZM110.506 467.491L94.8504 466.412L94.7853 467.358L110.441 468.437L110.506 467.491Z" fill="white"/>
<path d="M70.102 448.569C70.9954 448.569 71.8087 448.749 72.542 449.109C73.2754 449.469 73.8554 449.982 74.282 450.649C74.7087 451.302 74.922 452.062 74.922 452.929C74.922 453.862 74.6887 454.682 74.222 455.389C73.7554 456.095 73.1154 456.642 72.302 457.029C71.502 457.402 70.6087 457.589 69.622 457.589C67.662 457.589 66.1287 456.989 65.022 455.789C63.9154 454.589 63.362 452.875 63.362 450.649C63.362 449.062 63.662 447.702 64.262 446.569C64.862 445.435 65.6954 444.575 66.762 443.989C67.842 443.402 69.0887 443.109 70.502 443.109C71.2487 443.109 71.962 443.195 72.642 443.369C73.3354 443.529 73.922 443.762 74.402 444.069L73.202 446.449C72.5087 445.982 71.6354 445.749 70.582 445.749C69.3954 445.749 68.4554 446.095 67.762 446.789C67.0687 447.482 66.6954 448.489 66.642 449.809C67.4687 448.982 68.622 448.569 70.102 448.569ZM69.442 455.169C70.1354 455.169 70.6954 454.982 71.122 454.609C71.562 454.235 71.782 453.729 71.782 453.089C71.782 452.449 71.562 451.942 71.122 451.569C70.6954 451.182 70.122 450.989 69.402 450.989C68.6954 450.989 68.1154 451.189 67.662 451.589C67.2087 451.975 66.982 452.475 66.982 453.089C66.982 453.702 67.202 454.202 67.642 454.589C68.082 454.975 68.682 455.169 69.442 455.169ZM80.8964 448.609C82.8697 448.609 84.3231 449.002 85.2564 449.789C86.2031 450.575 86.6764 451.629 86.6764 452.949C86.6764 453.802 86.4631 454.582 86.0364 455.289C85.6097 455.982 84.9564 456.542 84.0764 456.969C83.2097 457.382 82.1364 457.589 80.8564 457.589C79.8697 457.589 78.8964 457.462 77.9364 457.209C76.9897 456.942 76.1831 456.569 75.5164 456.089L76.7964 453.609C77.3297 454.009 77.9431 454.322 78.6364 454.549C79.3297 454.762 80.0431 454.869 80.7764 454.869C81.5897 454.869 82.2297 454.709 82.6964 454.389C83.1631 454.069 83.3964 453.622 83.3964 453.049C83.3964 452.449 83.1497 451.995 82.6564 451.689C82.1764 451.382 81.3364 451.229 80.1364 451.229H76.5564L77.2764 443.349H85.8164V445.949H79.9764L79.7564 448.609H80.8964ZM66.602 486.909C65.5754 486.909 64.7354 486.562 64.082 485.869C63.442 485.162 63.122 484.222 63.122 483.049C63.122 481.875 63.442 480.942 64.082 480.249C64.7354 479.542 65.5754 479.189 66.602 479.189C67.6287 479.189 68.462 479.542 69.102 480.249C69.742 480.942 70.062 481.875 70.062 483.049C70.062 484.222 69.742 485.162 69.102 485.869C68.462 486.562 67.6287 486.909 66.602 486.909ZM74.942 479.349H77.322L67.762 493.349H65.382L74.942 479.349ZM66.602 485.269C67.0554 485.269 67.4087 485.082 67.662 484.709C67.9287 484.335 68.062 483.782 68.062 483.049C68.062 482.315 67.9287 481.762 67.662 481.389C67.4087 481.015 67.0554 480.829 66.602 480.829C66.162 480.829 65.8087 481.022 65.542 481.409C65.2754 481.782 65.142 482.329 65.142 483.049C65.142 483.769 65.2754 484.322 65.542 484.709C65.8087 485.082 66.162 485.269 66.602 485.269ZM76.102 493.509C75.4354 493.509 74.8354 493.355 74.302 493.049C73.782 492.729 73.3754 492.275 73.082 491.689C72.7887 491.102 72.642 490.422 72.642 489.649C72.642 488.875 72.7887 488.195 73.082 487.609C73.3754 487.022 73.782 486.575 74.302 486.269C74.8354 485.949 75.4354 485.789 76.102 485.789C77.1287 485.789 77.962 486.142 78.602 486.849C79.2554 487.542 79.582 488.475 79.582 489.649C79.582 490.822 79.2554 491.762 78.602 492.469C77.962 493.162 77.1287 493.509 76.102 493.509ZM76.102 491.869C76.5554 491.869 76.9087 491.682 77.162 491.309C77.4287 490.922 77.562 490.369 77.562 489.649C77.562 488.929 77.4287 488.382 77.162 488.009C76.9087 487.622 76.5554 487.429 76.102 487.429C75.662 487.429 75.3087 487.615 75.042 487.989C74.7754 488.362 74.642 488.915 74.642 489.649C74.642 490.382 74.7754 490.935 75.042 491.309C75.3087 491.682 75.662 491.869 76.102 491.869Z" fill="white"/>
</svg>
