<svg width="77" height="78" viewBox="0 0 77 78" fill="none" xmlns="http://www.w3.org/2000/svg">
<g clip-path="url(#clip0)">
<path d="M70.3279 15.8956L76.4157 10.0717V8.79688H55.3263L40.296 46.2073L23.1962 8.79688H1.08311V10.0717L8.19452 18.6327C8.88754 19.2653 9.24994 20.1904 9.15775 21.1218V54.7651C9.3771 55.9763 8.98291 57.2225 8.13094 58.1031L0.119873 67.8117V69.0706H22.8338V67.7958L14.8227 58.1031C13.9549 57.2193 13.5448 55.9954 13.7196 54.7651V25.6646L33.6583 69.0865H35.9757L53.1201 25.6646V60.2552C53.1201 61.1676 53.12 61.3552 52.5224 61.9528L46.3551 67.9198V69.1977H76.2758V67.923L70.3311 62.1022C69.8098 61.708 69.5395 61.0468 69.6508 60.4046V17.5931C69.5395 16.9478 69.8066 16.2866 70.3279 15.8956V15.8956Z" fill="white"/>
</g>
<defs>
<clipPath id="clip0">
<rect width="76.2958" height="76.2958" fill="white" transform="translate(0.119873 0.849365)"/>
</clipPath>
</defs>
</svg>
