<svg width="27" height="27" viewBox="0 0 27 27" fill="none" xmlns="http://www.w3.org/2000/svg">
<g clip-path="url(#clip0)">
<path d="M24.4158 5.23247L26.5329 3.20713V2.76381H19.1988L13.9718 15.7738L8.0251 2.76381H0.334978V3.20713L2.80806 6.18434C3.04907 6.40434 3.1751 6.72605 3.14304 7.04998V18.7499C3.21932 19.1711 3.08224 19.6045 2.78595 19.9107L0 23.287V23.7248H7.89906V23.2815L5.11311 19.9107C4.8113 19.6034 4.66868 19.1777 4.72949 18.7499V8.62979L11.6634 23.7303H12.4694L18.4315 8.62979V20.6591C18.4315 20.9764 18.4315 21.0417 18.2237 21.2495L16.0789 23.3246V23.769H26.4843V23.3257L24.4169 21.3015C24.2356 21.1644 24.1416 20.9344 24.1803 20.7111V5.82283C24.1416 5.59841 24.2345 5.36845 24.4158 5.23247V5.23247Z" fill="#C2C2C2"/>
</g>
<defs>
<clipPath id="clip0">
<rect width="26.5329" height="26.5329" fill="white"/>
</clipPath>
</defs>
</svg>
