<svg width="43" height="43" viewBox="0 0 43 43" fill="none" xmlns="http://www.w3.org/2000/svg">
<g clip-path="url(#clip0)">
<path d="M5.375 19.7083C4.91633 19.7083 4.45767 19.5327 4.10829 19.1833C3.40775 18.4828 3.40775 17.3504 4.10829 16.6499L16.4815 4.27663C17.1821 3.57609 18.3144 3.57609 19.015 4.27663C19.7155 4.97717 19.7155 6.1095 19.015 6.81004L6.64171 19.1833C6.29233 19.5327 5.83367 19.7083 5.375 19.7083Z" fill="black"/>
<path d="M20.1562 10.7501C19.8069 10.7501 19.4629 10.6139 19.2066 10.3559L12.9358 4.08508C12.5506 3.70166 12.4359 3.12296 12.6438 2.62129C12.8516 2.11962 13.3425 1.79175 13.8854 1.79175H20.1562C20.898 1.79175 21.5 2.39375 21.5 3.1355V9.40633C21.5 9.94921 21.1721 10.4401 20.6704 10.648C20.5038 10.716 20.33 10.7501 20.1562 10.7501Z" fill="black"/>
<path d="M12.5417 27.3228V37.6249H1.79169V27.3228C1.79169 26.0866 2.79502 25.0833 4.03127 25.0833H10.3021C11.5384 25.0833 12.5417 26.0866 12.5417 27.3228Z" fill="black"/>
<path d="M26.875 20.1563V37.6251H16.125V20.1563C16.125 18.9201 17.1283 17.9167 18.3646 17.9167H24.6354C25.8717 17.9167 26.875 18.9201 26.875 20.1563Z" fill="black"/>
<path d="M41.2084 12.9896V37.625H30.4584V12.9896C30.4584 11.7533 31.4617 10.75 32.698 10.75H38.9688C40.205 10.75 41.2084 11.7533 41.2084 12.9896Z" fill="black"/>
<path d="M41.6562 43H1.34375C0.602 43 0 42.398 0 41.6562C0 40.9145 0.602 40.3125 1.34375 40.3125H41.6562C42.398 40.3125 43 40.9145 43 41.6562C43 42.398 42.398 43 41.6562 43Z" fill="black"/>
</g>
<defs>
<clipPath id="clip0">
<rect width="43" height="43" fill="white"/>
</clipPath>
</defs>
</svg>
