<svg width="43" height="43" viewBox="0 0 43 43" fill="none" xmlns="http://www.w3.org/2000/svg">
<path d="M43 10.1621V3.86328C43 1.77938 41.3046 0.0839844 39.2207 0.0839844H3.7793C1.69539 0.0839844 0 1.77938 0 3.86328V10.1621H43ZM29.0586 5.12305H36.6172C37.3129 5.12305 37.877 5.68709 37.877 6.38281C37.877 7.07854 37.3129 7.64258 36.6172 7.64258H29.0586C28.3629 7.64258 27.7988 7.07854 27.7988 6.38281C27.7988 5.68709 28.3629 5.12305 29.0586 5.12305ZM16.4609 5.12305C17.1567 5.12305 17.7207 5.68709 17.7207 6.38281C17.7207 7.07854 17.1567 7.64258 16.4609 7.64258C15.7652 7.64258 15.2012 7.07854 15.2012 6.38281C15.2012 5.68709 15.7652 5.12305 16.4609 5.12305ZM11.4219 5.12305C12.1176 5.12305 12.6816 5.68709 12.6816 6.38281C12.6816 7.07854 12.1176 7.64258 11.4219 7.64258C10.7261 7.64258 10.1621 7.07854 10.1621 6.38281C10.1621 5.68709 10.7261 5.12305 11.4219 5.12305ZM6.38281 5.12305C7.07854 5.12305 7.64258 5.68709 7.64258 6.38281C7.64258 7.07854 7.07854 7.64258 6.38281 7.64258C5.68709 7.64258 5.12305 7.07854 5.12305 6.38281C5.12305 5.68709 5.68709 5.12305 6.38281 5.12305Z" fill="black"/>
<path d="M0 12.6816V39.1367C0 41.2206 1.69539 42.916 3.7793 42.916H39.2207C41.3046 42.916 43 41.2206 43 39.1367V12.6816H0ZM14.7283 30.5944C15.2717 31.029 15.3597 31.8218 14.9251 32.3651C14.4906 32.9083 13.6977 32.9965 13.1545 32.5618L6.85564 27.5227C6.22585 27.019 6.22543 26.0593 6.85564 25.5553L13.1545 20.5162C13.6975 20.0816 14.4904 20.1696 14.9251 20.7129C15.3597 21.2562 15.2717 22.049 14.7283 22.4835L9.65921 26.5391L14.7283 30.5944ZM26.4372 18.217L18.8786 35.8537C18.6046 36.4931 17.8641 36.7895 17.2244 36.5153C16.585 36.2413 16.2887 35.5006 16.5628 34.8612L24.1214 17.2244C24.3955 16.585 25.1361 16.2888 25.7756 16.5628C26.415 16.8369 26.7113 17.5774 26.4372 18.217V18.217ZM36.1444 27.5228L29.8455 32.5618C29.3032 32.9959 28.5102 32.9092 28.0749 32.3651C27.6403 31.8218 27.7283 31.029 28.2717 30.5945L33.3408 26.5391L28.2717 22.4837C27.7283 22.0491 27.6403 21.2564 28.0749 20.7131C28.5094 20.1698 29.3022 20.0817 29.8455 20.5164L36.1444 25.5554C36.7742 26.0591 36.7746 27.0187 36.1444 27.5228V27.5228Z" fill="black"/>
</svg>
