<svg width="43" height="43" viewBox="0 0 43 43" fill="none" xmlns="http://www.w3.org/2000/svg">
<g clip-path="url(#clip0)">
<path d="M10.8819 42.9633L11.6736 42.742C12.435 42.5292 12.8798 41.7394 12.667 40.9779L3.61606 8.58795C3.48834 8.13085 3.18427 7.74321 2.77073 7.51031C2.35719 7.27741 1.86807 7.21833 1.41098 7.34607L1.30874 7.37461C0.356827 7.64057 -0.199248 8.62785 0.0667059 9.57977L9.11791 41.9697C9.33069 42.7312 10.1205 43.176 10.8819 42.9633V42.9633Z" fill="black"/>
<path d="M42.7553 20.3285C39.885 18.8973 37.2297 17.0705 34.867 14.9016C34.6684 14.7198 34.5907 14.4407 34.6669 14.1824C35.8376 9.75356 36.707 5.25049 37.2691 0.704141C37.3581 -0.0520655 36.9503 -0.274479 36.5203 0.244486C28.0834 10.3347 13.4857 -1.60155 4.79669 7.56931C4.90101 7.76463 4.98308 7.97104 5.04135 8.18466L10.9131 29.2102C19.6169 20.1505 34.1627 32.0126 42.5848 21.9447C43.0148 21.4257 43.0963 20.4767 42.7553 20.3285V20.3285Z" fill="black"/>
</g>
<defs>
<clipPath id="clip0">
<rect width="43" height="43" fill="white"/>
</clipPath>
</defs>
</svg>
