<svg width="43" height="43" viewBox="0 0 43 43" fill="none" xmlns="http://www.w3.org/2000/svg">
<g clip-path="url(#clip0)">
<path d="M10.938 11.6123L7.21263 11.9001C6.17601 11.9802 5.25278 12.5235 4.67951 13.3907L0.383155 19.8886C-0.051629 20.5462 -0.120748 21.3692 0.198139 22.0901C0.517109 22.811 1.1726 23.3134 1.95155 23.4341L5.36255 23.9624C6.16048 19.7279 8.0706 15.5039 10.938 11.6123V11.6123Z" fill="#030A20"/>
<path d="M19.0376 37.6374L19.5659 41.0484C19.6866 41.8274 20.189 42.4829 20.9098 42.8018C21.2098 42.9345 21.5272 43 21.8431 43C22.2868 43 22.7273 42.8707 23.1114 42.6167L29.6095 38.3205C30.4767 37.7471 31.02 36.8238 31.0999 35.7874L31.3877 32.062C27.4961 34.9295 23.2721 36.8396 19.0376 37.6374V37.6374Z" fill="#030A20"/>
<path d="M17.7547 35.2733C17.8731 35.2733 17.9922 35.2635 18.1111 35.2437C19.8851 34.9471 21.595 34.4474 23.2262 33.7933L9.20677 19.7739C8.55271 21.405 8.053 23.1149 7.75637 24.889C7.63947 25.5884 7.87403 26.3008 8.37533 26.8022L16.1979 34.6248C16.6141 35.0409 17.1759 35.2733 17.7547 35.2733Z" fill="#030A20"/>
<path d="M39.5713 19.0646C43.002 12.432 43.1291 5.42308 42.9498 2.13596C42.8884 1.00965 41.9904 0.111698 40.864 0.0503062C40.3288 0.0210799 39.6945 0 38.9795 0C35.3039 0 29.4879 0.556728 23.9354 3.42872C19.5228 5.71114 13.7365 10.7368 10.3228 17.3415C10.3631 17.373 10.4025 17.4064 10.4396 17.4435L25.5566 32.5606C25.5938 32.5977 25.6271 32.637 25.6586 32.6773C32.2632 29.2635 37.2889 23.4772 39.5713 19.0646V19.0646ZM25.0018 9.0904C27.4576 6.63463 31.4536 6.63438 33.9096 9.0904C35.0993 10.28 35.7545 11.8619 35.7545 13.5443C35.7545 15.2268 35.0993 16.8086 33.9096 17.9982C32.6818 19.226 31.0685 19.84 29.4558 19.8401C27.8425 19.8402 26.2299 19.2263 25.0018 17.9982C23.8121 16.8086 23.1569 15.2268 23.1569 13.5443C23.1569 11.8619 23.8121 10.28 25.0018 9.0904V9.0904Z" fill="#030A20"/>
<path d="M26.7834 16.2167C28.2569 17.6902 30.6546 17.6903 32.1281 16.2167C32.8419 15.5028 33.235 14.5538 33.235 13.5443C33.235 12.5348 32.8419 11.5858 32.1281 10.872C31.3914 10.1352 30.4236 9.76685 29.4558 9.76685C28.488 9.76685 27.5202 10.1352 26.7835 10.872C26.0697 11.5858 25.6765 12.5348 25.6765 13.5443C25.6765 14.5538 26.0696 15.5029 26.7834 16.2167Z" fill="#030A20"/>
<path d="M1.28538 35.436C1.6078 35.436 1.93021 35.3131 2.17612 35.067L6.28909 30.954C6.78107 30.462 6.78107 29.6644 6.28909 29.1725C5.79719 28.6805 4.99951 28.6805 4.50753 29.1725L0.394559 33.2854C-0.0974214 33.7774 -0.0974214 34.575 0.394559 35.067C0.640549 35.313 0.962965 35.436 1.28538 35.436Z" fill="#030A20"/>
<path d="M10.0584 32.9417C9.5665 32.4498 8.76882 32.4498 8.27684 32.9417L0.369291 40.8493C-0.12269 41.3413 -0.12269 42.1389 0.369291 42.6308C0.615281 42.8768 0.937697 42.9998 1.26011 42.9998C1.58253 42.9998 1.90494 42.8768 2.15085 42.6308L10.0583 34.7233C10.5504 34.2313 10.5504 33.4337 10.0584 32.9417V32.9417Z" fill="#030A20"/>
<path d="M12.046 36.711L7.93313 40.824C7.44115 41.316 7.44115 42.1136 7.93313 42.6056C8.17912 42.8515 8.50154 42.9746 8.82387 42.9746C9.1462 42.9746 9.4687 42.8516 9.71461 42.6056L13.8276 38.4926C14.3196 38.0006 14.3196 37.203 13.8276 36.711C13.3357 36.219 12.538 36.219 12.046 36.711Z" fill="#030A20"/>
</g>
<defs>
<clipPath id="clip0">
<rect width="43" height="43" fill="white"/>
</clipPath>
</defs>
</svg>
