<svg width="25" height="25" viewBox="0 0 25 25" fill="none" xmlns="http://www.w3.org/2000/svg">
<g clip-path="url(#clip0)">
<path d="M24.9128 4.78234C24.0061 5.18007 23.04 5.44369 22.0328 5.5717C23.069 4.95302 23.8598 3.9808 24.2317 2.80896C23.2655 3.38498 22.1989 3.79184 21.0621 4.0189C20.1447 3.04211 18.8372 2.43714 17.4109 2.43714C14.6436 2.43714 12.4157 4.68329 12.4157 7.43689C12.4157 7.83309 12.4493 8.21405 12.5316 8.57673C8.37602 8.37406 4.69898 6.38239 2.22882 3.3484C1.79757 4.09661 1.54461 4.95302 1.54461 5.87494C1.54461 7.60604 2.43606 9.14055 3.76486 10.029C2.96179 10.0137 2.17396 9.78057 1.50651 9.41332C1.50651 9.42856 1.50651 9.44837 1.50651 9.46818C1.50651 11.8972 3.23913 13.9148 5.51119 14.3795C5.10432 14.4908 4.66088 14.5441 4.20068 14.5441C3.88067 14.5441 3.55761 14.5258 3.25437 14.4588C3.902 16.4383 5.73977 17.8935 7.92496 17.9408C6.22435 19.2711 4.06506 20.0726 1.72747 20.0726C1.31756 20.0726 0.924403 20.0544 0.53125 20.0041C2.7454 21.4319 5.36947 22.2472 8.19926 22.2472C17.3972 22.2472 22.4259 14.6279 22.4259 8.02357C22.4259 7.80261 22.4183 7.58927 22.4076 7.37746C23.3996 6.67344 24.2332 5.79418 24.9128 4.78234Z" fill="#C2C2C2"/>
</g>
<defs>
<clipPath id="clip0">
<rect width="24.3816" height="24.3816" fill="white" transform="translate(0.53125 0.151367)"/>
</clipPath>
</defs>
</svg>
